<?xml version="1.0" encoding="utf-8"?>
<!-- Generator: Adobe Illustrator 21.1.0, SVG Export Plug-In . SVG Version: 6.00 Build 0)  -->
<svg version="1.1" id="Layer_1" xmlns="http://www.w3.org/2000/svg" xmlns:xlink="http://www.w3.org/1999/xlink" x="0px" y="0px"
	 viewBox="0 0 25.8 43.2" style="enable-background:new 0 0 25.8 43.2;" xml:space="preserve">
<style type="text/css">
	.st0{fill:#628CC9;}
	.st1{fill:#FFFFFF;}
</style>
<polygon class="st0" points="21.9,36.4 0,43.2 0,0 25.8,0 "/>
<title>goodface</title>
<path class="st1" d="M0,27.3L0,27.3v3.3c7.9,0.2,9-1.9,11.6-4.9l-2.4-2C6.9,26.9,6,27.3,0,27.3z"/>
<path class="st1" d="M22.4,0.2v25.5c0,9.3-9.4,14.2-17.1,14.2H0v3.3h4.6c14.3-0.3,21.2-8.7,21.2-17v-7.1l0,0l0-19c0,0,0,0,0-0.1
	h-3.4C22.4,0.1,22.4,0.1,22.4,0.2z"/>
<circle class="st1" cx="11.4" cy="11.9" r="4.7"/>
</svg>
