<svg id="goodlogo" xmlns="http://www.w3.org/2000/svg" viewBox="0 0 223.19 79.56"><defs><style>.cls-1,.cls-2,.cls-3{fill-rule:evenodd;}.cls-2{fill:#fff;}.cls-3{fill:#384b9b;}.cls-4{fill:#959595;}</style></defs><title>goodlogo</title><path id="cSymbol" class="cls-1" d="M51.66,74.69a2.52,2.52,0,0,1,1.75.7,2.45,2.45,0,0,1-1.75,4.17,2.23,2.23,0,0,1-1.72-.72,2.36,2.36,0,0,1,0-3.45,2.41,2.41,0,0,1,1.72-.7ZM50.3,75.78A1.89,1.89,0,0,0,51.66,79,1.76,1.76,0,0,0,53,78.45a1.88,1.88,0,0,0,0-2.67,1.76,1.76,0,0,0-1.33-.56,1.86,1.86,0,0,0-1.36.56Zm.94.28V77h.22c.42,0,.61-.2.61-.5s-.19-.42-.56-.42Zm.28-.42c.72,0,1.11.28,1.11.78a.92.92,0,0,1-.56.83l.69,1.31h-.67l-.58-1.22h-.28v1.22h-.53V75.64Z"/><polygon class="cls-1" points="0 0.92 54.75 0.92 54.75 72.69 0 72.69 0 0.92 0 0.92"/><polygon class="cls-2" points="3.09 33.16 3.09 54.2 51.43 54.2 51.43 4.32 3.09 4.32 3.09 33.16 3.09 33.16"/><path id="primaryColor" class="cls-3" d="M28.2,3.69l.13,22.1c0,.13-.1,5.39-.13,5.53C27,38.25,21.55,46.14,9.62,46.77l-7-.13-.12,8.54H52.19l.13-51.49Z"/><polygon class="cls-2" points="33.49 63.51 33.49 59.92 31.68 59.92 31.68 65.42 40.49 65.42 40.49 59.92 38.57 59.92 38.57 63.51 36.94 63.51 36.94 59.92 35.23 59.92 35.23 63.51 33.49 63.51 33.49 63.51"/><polygon class="cls-2" points="42.06 59.92 43.68 59.92 43.68 65.42 42.06 65.42 42.06 59.92 42.06 59.92"/><polygon class="cls-2" points="42.06 56.83 43.68 56.83 43.68 58.77 42.06 58.77 42.06 56.83 42.06 56.83"/><polygon class="cls-2" points="45.36 56.83 47.36 56.83 47.36 65.42 45.36 65.42 45.36 56.83 45.36 56.83"/><polygon class="cls-2" points="48.92 56.83 51.15 56.83 51.15 65.42 48.92 65.42 48.92 56.83 48.92 56.83"/><path class="cls-2" d="M3.93,59.92v5.57h3c.3,1.58-.72,2.36-3,2.36v2.4c3.5-.46,5.49-2,5.83-4.75V59.92Zm3.8,3.63H5.91a1.52,1.52,0,0,1,0-2.32H7.73A1.65,1.65,0,0,1,7.73,63.55Z"/><path class="cls-2" d="M11,59.92v5.5h5.84v-5.5ZM15,63.51H13.23a1.6,1.6,0,0,1,0-2.29H15A1.6,1.6,0,0,1,15,63.51Z"/><path class="cls-2" d="M28.45,56.95v3H24.87v5.42h5.66V56.95Zm.19,6.56H27a1.6,1.6,0,0,1,0-2.29h1.62A1.6,1.6,0,0,1,28.64,63.51Z"/><path class="cls-2" d="M17.79,59.92v5.5h6v-5.5Zm3.76,3.59H20.11a1.6,1.6,0,0,1,0-2.29h1.44A1.6,1.6,0,0,1,21.55,63.51Z"/><path class="cls-1" d="M12.37,28c-2.39,3.19-3.32,3.6-9.25,3.6-1.3,0-1.55.42-1.67,1.72s.05,1.51,1.35,1.56C11,35.21,12,33.11,14.73,30l-2.37-2Z"/><path class="cls-1" d="M25.46,4.51V30c0,9.26-9.33,14.16-17.08,14.16H2.87c-1.28,0-1.23.57-1.23,1.84,0,0,.12.47.12.49,0,1.3.3,1,1.6,1h4.3c14.32-.27,21.24-8.71,21.24-17V4.39c0-1.3-.42-1.11-1.72-1.11s-1.72-.07-1.72,1.23Z"/><path class="cls-1" d="M19.23,16.18a4.7,4.7,0,1,1-4.7-4.7,4.7,4.7,0,0,1,4.7,4.7Z"/><g id="Text"><rect class="cls-4" x="72.36" y="1.12" width="1.29" height="71.78"/><path class="cls-4" d="M105.52,19.63a15.29,15.29,0,0,1-5.69,1.07A9.45,9.45,0,0,1,93,18.16a10.26,10.26,0,0,1-2.68-7.33c0-5.4,3.55-10,10.16-10A11.16,11.16,0,0,1,105,1.7l-.46,1.16A9.15,9.15,0,0,0,100.35,2C95,2,91.72,5.49,91.72,10.77c0,5.49,3.2,8.75,8.34,8.75a9.33,9.33,0,0,0,4.07-.66V12h-4.5V10.85h5.89Z"/><path class="cls-4" d="M121.54,13.42c0,5.17-3.55,7.39-6.64,7.39-3.58,0-6.35-2.8-6.35-7.13,0-4.73,3.12-7.36,6.55-7.36C118.94,6.32,121.54,9.21,121.54,13.42Zm-11.61.17c0,3.46,2.22,6.06,5.05,6.06s5.17-2.6,5.17-6.15c0-2.54-1.41-6-5.08-6S109.94,10.62,109.94,13.6Z"/><path class="cls-4" d="M136.9,13.42c0,5.17-3.55,7.39-6.64,7.39-3.58,0-6.35-2.8-6.35-7.13,0-4.73,3.12-7.36,6.55-7.36C134.3,6.32,136.9,9.21,136.9,13.42Zm-11.61.17c0,3.46,2.22,6.06,5.05,6.06s5.17-2.6,5.17-6.15c0-2.54-1.41-6-5.08-6S125.29,10.62,125.29,13.6Z"/><path class="cls-4" d="M151.48,0V17.26c0,1,0,2.25.12,3.23h-1.24l-.12-2.63h-.06a5.25,5.25,0,0,1-4.94,2.94c-3.44,0-6-2.86-6-7,0-4.62,2.83-7.51,6.24-7.51A4.89,4.89,0,0,1,150,8.78h.06V0Zm-1.39,12.13a4.79,4.79,0,0,0-.14-1.27,4.44,4.44,0,0,0-4.36-3.38c-3,0-4.94,2.63-4.94,6.21,0,3.12,1.56,6,4.85,6a4.6,4.6,0,0,0,4.45-3.61,3.74,3.74,0,0,0,.14-1.16Z"/><path class="cls-4" d="M155.86,6.64l2.34,7.88c.46,1.62.87,3,1.18,4.33h.06c.35-1.27.84-2.74,1.39-4.33l2.77-7.88h1.3l2.66,7.82c.58,1.67,1,3.09,1.36,4.39H169c.29-1.3.72-2.68,1.27-4.36l2.45-7.85h1.42L169.49,20.5H168.3l-2.63-7.71c-.58-1.67-1.07-3.18-1.44-4.73h-.06a47.74,47.74,0,0,1-1.5,4.76l-2.74,7.68h-1.21L154.45,6.64Z"/><path class="cls-4" d="M178.75,2.68a1.13,1.13,0,0,1-1.15,1.18,1.11,1.11,0,0,1-1.07-1.18,1.18,1.18,0,0,1,1.13-1.21A1.14,1.14,0,0,1,178.75,2.68ZM177,20.5V6.64h1.39V20.5Z"/><path class="cls-4" d="M183,0h1.39V20.5H183Z"/><path class="cls-4" d="M189.11,0h1.39V20.5h-1.39Z"/><path class="cls-4" d="M92.07,27.06V46.52H90.68V27.06Z"/><path class="cls-4" d="M96.05,36c0-1.27,0-2.22-.12-3.32h1.3l.09,2.51h.06a5.23,5.23,0,0,1,4.76-2.83c1.33,0,4.85.66,4.85,5.86v8.31h-1.39v-8.2c0-2.51-1-4.79-3.84-4.79a4.45,4.45,0,0,0-4.16,3.17,5.35,5.35,0,0,0-.17,1.24v8.57H96.05Z"/><path class="cls-4" d="M122,26V43.29c0,1,0,2.25.12,3.23h-1.24l-.12-2.63h-.06a5.25,5.25,0,0,1-4.94,2.94c-3.43,0-6-2.86-6-7,0-4.62,2.83-7.51,6.24-7.51a4.89,4.89,0,0,1,4.53,2.45h.06V26Zm-1.39,12.13a4.78,4.78,0,0,0-.14-1.27,4.44,4.44,0,0,0-4.36-3.38c-3,0-4.94,2.63-4.94,6.21,0,3.12,1.56,6,4.85,6a4.6,4.6,0,0,0,4.45-3.61,3.73,3.73,0,0,0,.14-1.15Z"/><path class="cls-4" d="M136.75,43.14c0,1.21,0,2.31.12,3.38h-1.3L135.48,44h-.06a5.33,5.33,0,0,1-4.73,2.8c-1.76,0-4.74-.9-4.74-6.12V32.66h1.39v7.79c0,3,.92,5.17,3.67,5.17a4.58,4.58,0,0,0,4.1-2.8,5,5,0,0,0,.26-1.53V32.66h1.39Z"/><path class="cls-4" d="M140.82,44.7a6.13,6.13,0,0,0,3.12,1c2.19,0,3.23-1.18,3.23-2.63s-.92-2.34-2.92-3.15c-2.28-.87-3.52-2.11-3.52-3.78,0-2,1.59-3.75,4.27-3.75a5.43,5.43,0,0,1,3.06.87l-.52,1.13a4.67,4.67,0,0,0-2.77-.84,2.42,2.42,0,0,0-2.68,2.4c0,1.44,1,2.08,2.86,2.86,2.25.87,3.58,2,3.58,4.1,0,2.37-1.85,4-4.68,4a6.81,6.81,0,0,1-3.52-1Z"/><path class="cls-4" d="M154.65,29.6v3.06h4v1.13h-4v9c0,1.76.55,2.86,2,2.86a5.17,5.17,0,0,0,1.59-.2l.17,1a4.82,4.82,0,0,1-1.93.35,2.87,2.87,0,0,1-2.37-1,5.06,5.06,0,0,1-.87-3.32V33.79h-2.34V32.66h2.34V30.12Z"/><path class="cls-4" d="M161.63,36.82c0-1.39,0-2.8-.12-4.16h1.27l.06,2.8h.09a4.31,4.31,0,0,1,3.93-3.12,3.5,3.5,0,0,1,.58.06v1.33a2.34,2.34,0,0,0-.66-.06c-1.91,0-3.26,1.65-3.64,3.87a6.55,6.55,0,0,0-.12,1.33v7.65h-1.39Z"/><path class="cls-4" d="M172.17,28.71A1.13,1.13,0,0,1,171,29.89a1.11,1.11,0,0,1-1.07-1.18,1.19,1.19,0,0,1,1.13-1.21A1.14,1.14,0,0,1,172.17,28.71Zm-1.79,17.81V32.66h1.39V46.52Z"/><path class="cls-4" d="M176.61,39.45c0,4.42,2.4,6.18,5.28,6.18a8.05,8.05,0,0,0,3.84-.78l.35,1.07a9.14,9.14,0,0,1-4.36.89c-4,0-6.47-2.89-6.47-7,0-4.62,2.66-7.51,6.24-7.51,4.53,0,5.4,4.27,5.4,6.26a3.56,3.56,0,0,1-.06.84Zm8.83-1.1c0-1.93-.78-4.85-4.13-4.85-3.06,0-4.39,2.71-4.65,4.85Z"/><path class="cls-4" d="M190.41,44.7a6.13,6.13,0,0,0,3.12,1c2.19,0,3.23-1.18,3.23-2.63s-.92-2.34-2.92-3.15c-2.28-.87-3.52-2.11-3.52-3.78,0-2,1.59-3.75,4.27-3.75a5.42,5.42,0,0,1,3.06.87l-.52,1.13a4.67,4.67,0,0,0-2.77-.84,2.42,2.42,0,0,0-2.68,2.4c0,1.44,1,2.08,2.86,2.86,2.25.87,3.58,2,3.58,4.1,0,2.37-1.85,4-4.68,4a6.8,6.8,0,0,1-3.52-1Z"/><path class="cls-4" d="M102.52,65.47c0,5.17-3.55,7.39-6.64,7.39-3.58,0-6.35-2.8-6.35-7.13,0-4.73,3.12-7.36,6.55-7.36C99.92,58.36,102.52,61.25,102.52,65.47Zm-11.61.17c0,3.46,2.22,6.06,5.05,6.06s5.17-2.6,5.17-6.15c0-2.54-1.41-6-5.08-6S90.91,62.67,90.91,65.64Z"/><path class="cls-4" d="M106.7,72.54V59.81h-2V58.68h2v-.75c0-2.14.4-3.87,1.53-5a4.41,4.41,0,0,1,3.09-1.21,4.61,4.61,0,0,1,2.08.46L113,53.25a3.73,3.73,0,0,0-1.76-.37c-2.6,0-3.12,2.37-3.12,5v.78h3.7v1.13h-3.7V72.54Z"/><path class="cls-4" d="M119.92,53.37a29,29,0,0,1,5-.43c3.55,0,6.24,1,7.85,2.66a9.28,9.28,0,0,1,2.42,6.76,10.65,10.65,0,0,1-2.54,7.36c-1.7,1.88-4.65,3-8.4,3a42.63,42.63,0,0,1-4.33-.17Zm1.39,18a24,24,0,0,0,3.15.14c6.24,0,9.33-3.49,9.33-9.12.06-4.94-2.69-8.31-9-8.31a17.69,17.69,0,0,0-3.52.32Z"/><path class="cls-4" d="M146.65,69.25a20.71,20.71,0,0,0,.2,3.29h-1.27l-.2-2h-.06a5.3,5.3,0,0,1-4.45,2.31A3.76,3.76,0,0,1,136.81,69c0-3.2,2.8-5.14,8.46-5.08v-.37c0-1.36-.26-4.1-3.55-4.07a6.05,6.05,0,0,0-3.49,1l-.43-1a7.66,7.66,0,0,1,4.07-1.18c4,0,4.79,3,4.79,5.46Zm-1.39-4.13c-3-.09-7,.38-7,3.7A2.65,2.65,0,0,0,141,71.7a4.14,4.14,0,0,0,4.1-2.77,2.33,2.33,0,0,0,.14-.84Z"/><path class="cls-4" d="M150,52h1.39v20.5H150Z"/><path class="cls-4" d="M155.51,52h1.39v20.5h-1.39Z"/><path class="cls-4" d="M169.69,69.25a20.71,20.71,0,0,0,.2,3.29h-1.27l-.2-2h-.06a5.3,5.3,0,0,1-4.45,2.31A3.76,3.76,0,0,1,159.84,69c0-3.2,2.8-5.14,8.46-5.08v-.37c0-1.36-.26-4.1-3.55-4.07a6.05,6.05,0,0,0-3.49,1l-.43-1a7.66,7.66,0,0,1,4.07-1.18c4,0,4.79,3,4.79,5.46Zm-1.39-4.13c-3-.09-7,.38-7,3.7a2.65,2.65,0,0,0,2.77,2.89,4.14,4.14,0,0,0,4.1-2.77,2.33,2.33,0,0,0,.14-.84Z"/><path class="cls-4" d="M173,70.72a6.13,6.13,0,0,0,3.12,1c2.19,0,3.23-1.18,3.23-2.63s-.92-2.34-2.92-3.15c-2.28-.87-3.52-2.11-3.52-3.78,0-2,1.59-3.75,4.27-3.75a5.42,5.42,0,0,1,3.06.87l-.52,1.13a4.67,4.67,0,0,0-2.77-.84,2.42,2.42,0,0,0-2.68,2.4c0,1.44,1,2.08,2.86,2.86,2.25.87,3.58,2,3.58,4.1,0,2.37-1.85,4-4.68,4a6.79,6.79,0,0,1-3.52-1Z"/><path class="cls-4" d="M181,74.83A25,25,0,0,0,182,71l1.15-.18a22.83,22.83,0,0,1-1.4,4Z"/><path class="cls-4" d="M189.84,53.08V72.54h-1.39V53.08Z"/><path class="cls-4" d="M193.24,62c0-1.27,0-2.22-.12-3.32h1.3l.09,2.51h.06a5.23,5.23,0,0,1,4.76-2.83c1.33,0,4.85.66,4.85,5.86v8.31H202.8v-8.2c0-2.51-1-4.79-3.84-4.79a4.45,4.45,0,0,0-4.16,3.18,5.35,5.35,0,0,0-.17,1.24v8.57h-1.39Z"/><path class="cls-4" d="M217.11,71.93a9.45,9.45,0,0,1-4.07.9c-4,0-6.64-2.92-6.64-7.07,0-4.39,3-7.39,7.13-7.39a7.09,7.09,0,0,1,3.64.87l-.49,1.13a6.5,6.5,0,0,0-3.26-.81c-3.72,0-5.63,2.86-5.63,6.09,0,3.64,2.28,6,5.49,6a7.68,7.68,0,0,0,3.46-.81Z"/><rect class="cls-4" x="220.58" y="69.15" width="2.61" height="3.43"/></g></svg>