<svg id="Layer_1" data-name="Layer 1" xmlns="http://www.w3.org/2000/svg" viewBox="0 0 38.47 49.88"><defs><style>.cls-1{fill:#fff;}.cls-2{fill:none;stroke:#231f20;stroke-width:0.21px;}.cls-3{fill:#00539f;}.cls-4{fill:#231f20;}</style></defs><title>GOOD-Face-Color</title><polygon class="cls-1" points="21.18 33.55 1.93 33.55 1.93 2.22 21.18 2.22 21.18 33.55 21.18 33.55"/><polygon class="cls-2" points="21.18 33.55 1.93 33.55 1.93 2.22 21.18 2.22 21.18 33.55 21.18 33.55"/><path class="cls-3" d="M18.71,2.71s3,21-1.73,24.92S1.93,32.07,1.93,32.07V37.5l34,.25V2.47l-17.27.25Z"/><path class="cls-4" d="M0,0V49.88H38.47V0ZM3.28,23.69a10.35,10.35,0,0,0,8.31-3.13L9.65,19.47s-1.89,2.38-6.37,2.1v-18H18.07V21a7.38,7.38,0,0,1-2.16,5.29c-4,4-12.63,3.67-12.63,3.67V23.69ZM34.75,36.47H3.32V32.79s9.63.6,14.78-5.5a8.22,8.22,0,0,0,2.18-5.18c.23-1.71,0-18.24,0-18.24H34.75v32.6Z"/><path class="cls-1" d="M12,43.84a.12.12,0,0,1-.12.12H8a.12.12,0,0,1-.12-.12V40.43A.12.12,0,0,1,8,40.31h3.89a.12.12,0,0,1,.12.12v3.41Z"/><path class="cls-4" d="M10.53,42.49a.12.12,0,0,1-.12.12H9.53a.12.12,0,0,1-.12-.12v-.7a.12.12,0,0,1,.12-.12h.88a.12.12,0,0,1,.12.12v.7Z"/><path class="cls-1" d="M16.84,43.84a.13.13,0,0,1-.12.12H12.82a.12.12,0,0,1-.12-.12V40.43a.12.12,0,0,1,.12-.12h3.89a.12.12,0,0,1,.12.12v3.41Z"/><path class="cls-4" d="M15.33,42.49a.12.12,0,0,1-.12.12h-.88a.12.12,0,0,1-.12-.12v-.7a.12.12,0,0,1,.12-.12h.88a.12.12,0,0,1,.12.12v.7Z"/><polygon class="cls-1" points="19.9 38.45 19.9 40.31 17.34 40.31 17.34 43.97 21.3 43.97 21.3 41.03 21.3 40.31 21.3 38.45 19.9 38.45 19.9 38.45"/><path class="cls-4" d="M20,42.49a.12.12,0,0,1-.12.12H19a.12.12,0,0,1-.12-.12v-.7a.12.12,0,0,1,.12-.12h.88a.12.12,0,0,1,.12.12v.7Z"/><path class="cls-1" d="M26.62,40.28a.12.12,0,0,0-.12.12v2.24a.12.12,0,0,1-.12.12H26a.12.12,0,0,1-.12-.12V40.4a.12.12,0,0,0-.12-.12H24.33a.12.12,0,0,0-.12.12v2.24a.11.11,0,0,1-.12.12h-.42a.12.12,0,0,1-.12-.12V40.4a.12.12,0,0,0-.12-.12H22.07a.12.12,0,0,0-.12.12v3.42a.12.12,0,0,0,.12.12h5.71a.12.12,0,0,0,.12-.12V40.4a.12.12,0,0,0-.12-.12Z"/><path class="cls-1" d="M30.25,43.82a.12.12,0,0,1-.12.12H28.71a.12.12,0,0,1-.12-.12V40.6a.12.12,0,0,1,.12-.12h1.43a.12.12,0,0,1,.12.12v3.22Z"/><path class="cls-1" d="M28.59,38.6a.12.12,0,0,1,.12-.12h1.36a.12.12,0,0,1,.12.12v1.33a.12.12,0,0,1-.12.12H28.71a.12.12,0,0,1-.12-.12V38.6Z"/><path class="cls-1" d="M35.32,43.79a.12.12,0,0,1-.12.12H33.54a.12.12,0,0,1-.12-.12V38.54a.12.12,0,0,1,.12-.12H35.2a.12.12,0,0,1,.12.12v5.25Z"/><path class="cls-1" d="M32.72,43.79a.12.12,0,0,1-.12.12H30.95a.12.12,0,0,1-.12-.12V38.54a.12.12,0,0,1,.12-.12H32.6a.12.12,0,0,1,.12.12v5.25Z"/><path class="cls-1" d="M3.2,40.31V44h0v.63c.16,0,1.34.19,1.76-.69l.33.42S5,45.2,3.2,45v1.57a23.79,23.79,0,0,0,2.45,0,2.14,2.14,0,0,0,1.25-.75,2,2,0,0,0,.43-1.08V40.31Z"/><path class="cls-4" d="M4.85,42a.47.47,0,1,1,.47.48A.47.47,0,0,1,4.85,42Z"/><path class="cls-4" d="M7.92,11.27a2.81,2.81,0,1,1,2.81,2.8,2.81,2.81,0,0,1-2.81-2.8Z"/><path class="cls-1" d="M34.47,45.46a1.41,1.41,0,0,1,.68.18,1.27,1.27,0,0,1,.51.51,1.38,1.38,0,0,1,0,1.37,1.3,1.3,0,0,1-.51.51,1.37,1.37,0,0,1-1.37,0,1.29,1.29,0,0,1-.51-.51,1.38,1.38,0,0,1-.18-.68,1.39,1.39,0,0,1,.18-.69,1.29,1.29,0,0,1,.51-.51A1.42,1.42,0,0,1,34.47,45.46Zm0,.27a1.12,1.12,0,0,0-.54.14,1,1,0,0,0-.41.41,1.1,1.1,0,0,0,0,1.11,1.06,1.06,0,0,0,.41.41,1.1,1.1,0,0,0,1.1,0,1.07,1.07,0,0,0,.41-.41,1.11,1.11,0,0,0,0-1.11,1,1,0,0,0-.41-.41A1.12,1.12,0,0,0,34.47,45.73Zm-.62,1.84V46.11h.76a.59.59,0,0,1,.23.06.37.37,0,0,1,.14.14.4.4,0,0,1,.05.21.39.39,0,0,1-.1.27.47.47,0,0,1-.29.14l.1.05.1.11.11.18.17.29h-.37l-.12-.24a1,1,0,0,0-.2-.3.33.33,0,0,0-.2-.06h-.08v.6Zm.3-.83h.12a1.55,1.55,0,0,0,.32,0,.2.2,0,0,0,.1-.07.19.19,0,0,0,0-.11.17.17,0,0,0,0-.11.2.2,0,0,0-.1-.07,1.47,1.47,0,0,0-.32,0h-.12Z"/></svg>