<svg id="Layer_1" data-name="Layer 1" xmlns="http://www.w3.org/2000/svg" viewBox="0 0 46.6 46.59"><defs><style>.cls-1{fill:#a7a9ac;}.cls-2{fill:#fff;}.cls-3{fill:#231f20;}.cls-4{fill:#00539f;}.cls-5{fill:none;stroke:#231f20;stroke-width:0.21px;}</style></defs><title>TheLunch-OfficialLogo</title><rect class="cls-1" width="46.59" height="46.59"/><rect class="cls-2" x="0.59" y="0.58" width="45.43" height="45.43"/><path class="cls-3" d="M12.59,41a.89.89,0,0,0-.2-.39.47.47,0,0,0-.36-.14.53.53,0,0,0-.29.07.47.47,0,0,0-.17.18.73.73,0,0,0-.08.25,2.26,2.26,0,0,0,0,.29v.22a2.12,2.12,0,0,0,0,.4.7.7,0,0,0,.1.26.37.37,0,0,0,.17.14.66.66,0,0,0,.25,0,.36.36,0,0,0,.19,0,.28.28,0,0,0,.11-.12.49.49,0,0,0,0-.17,2.16,2.16,0,0,0,0-.22v-.1h-.27v0h.8v0h-.17v.59h0a.06.06,0,0,0,0,0h-.06l-.12,0-.12.05-.15.05-.2,0a.94.94,0,0,1-.36-.07,1,1,0,0,1-.31-.2,1,1,0,0,1-.21-.3.93.93,0,0,1,0-.77,1,1,0,0,1,.23-.31,1,1,0,0,1,.31-.2.91.91,0,0,1,.34-.07l.15,0,.13,0,.11,0,.08,0h.05l0,0h0V41Z"/><path class="cls-3" d="M13.09,41.38a.72.72,0,0,1,.16-.21.72.72,0,0,1,.22-.14.64.64,0,0,1,.24,0,.7.7,0,0,1,.46.18.67.67,0,0,1,.15.21.64.64,0,0,1,.06.28.62.62,0,0,1-.06.26.71.71,0,0,1-.36.36.64.64,0,0,1-.26.05.66.66,0,0,1-.26-.05.69.69,0,0,1-.37-.35.65.65,0,0,1,0-.54Zm.25.59a.55.55,0,0,0,.07.2.24.24,0,0,0,.12.1.47.47,0,0,0,.17,0,.38.38,0,0,0,.21,0,.3.3,0,0,0,.11-.14.66.66,0,0,0,0-.21c0-.08,0-.17,0-.26s0-.16,0-.24a.62.62,0,0,0,0-.2.31.31,0,0,0-.11-.14.46.46,0,0,0-.42,0,.31.31,0,0,0-.12.13.66.66,0,0,0-.05.21,2.58,2.58,0,0,0,0,.26A1.86,1.86,0,0,0,13.34,42Z"/><path class="cls-3" d="M14.6,41.38a.72.72,0,0,1,.16-.21A.72.72,0,0,1,15,41a.64.64,0,0,1,.24,0,.7.7,0,0,1,.46.18.68.68,0,0,1,.15.21.64.64,0,0,1,.06.28.62.62,0,0,1-.06.26.71.71,0,0,1-.36.36.64.64,0,0,1-.26.05.66.66,0,0,1-.26-.05.69.69,0,0,1-.37-.35.65.65,0,0,1,0-.54Zm.25.59a.55.55,0,0,0,.07.2.24.24,0,0,0,.12.1.47.47,0,0,0,.17,0,.38.38,0,0,0,.21,0,.3.3,0,0,0,.11-.14.66.66,0,0,0,0-.21c0-.08,0-.17,0-.26s0-.16,0-.24a.62.62,0,0,0,0-.2.32.32,0,0,0-.12-.14.46.46,0,0,0-.42,0,.3.3,0,0,0-.12.13.66.66,0,0,0-.05.21,2.58,2.58,0,0,0,0,.26A1.86,1.86,0,0,0,14.85,42Z"/><path class="cls-3" d="M16,41v0h.71l.18,0,.17.08a.55.55,0,0,1,.24.29.69.69,0,0,1,0,.23.68.68,0,0,1,0,.23.57.57,0,0,1-.1.17.56.56,0,0,1-.14.12l-.16.08-.17,0H16v0h.17V41Zm.53,1.24a.63.63,0,0,0,.2,0,.44.44,0,0,0,.14-.08.38.38,0,0,0,.09-.11.54.54,0,0,0,.05-.13.84.84,0,0,0,0-.14s0-.09,0-.13a1.73,1.73,0,0,0,0-.27.52.52,0,0,0-.07-.2.35.35,0,0,0-.15-.13.6.6,0,0,0-.25,0h-.11v1.24Z"/><path class="cls-3" d="M18,41v0h-.13l.33,1h0l.19-.54L18.23,41h-.1v0h.54v0H18.5l.33,1h0l.34-1H19v0h.33v0H19.2l-.47,1.31h-.05l-.3-.86h0l-.3.86H18L17.58,41h-.15v0Z"/><path class="cls-3" d="M20,41v0h-.17v1.24H20v0h-.6v0h.17V41H19.4v0Z"/><path class="cls-3" d="M20.74,41v0h-.17v1.24h.3l.12,0a.34.34,0,0,0,.11-.07.47.47,0,0,0,.1-.12.62.62,0,0,0,.07-.18h0v.41H20.15v0h.17V41h-.17v0Z"/><path class="cls-3" d="M22.05,41v0h-.17v1.24h.3l.12,0a.33.33,0,0,0,.11-.07.47.47,0,0,0,.1-.12.62.62,0,0,0,.07-.18h0v.41H21.45v0h.17V41h-.17v0Z"/><path class="cls-3" d="M24.35,40.46v0h-.24v1.77h.24v0H23.5v0h.24V40.49H23.5v0Z"/><path class="cls-3" d="M24.94,41l.6.86h0V41h-.17v0h.36v0h-.17V42.3h0l-.82-1.16h0v1.14h.17v0h-.36v0h.17V41h-.17v0Z"/><path class="cls-3" d="M25.85,41v0h.71l.18,0,.17.08a.57.57,0,0,1,.14.12.56.56,0,0,1,.1.17.68.68,0,0,1,0,.23.67.67,0,0,1,0,.23.57.57,0,0,1-.1.17.56.56,0,0,1-.14.12l-.16.08-.17,0h-.73v0H26V41Zm.53,1.24a.63.63,0,0,0,.2,0,.43.43,0,0,0,.14-.08.38.38,0,0,0,.09-.11.54.54,0,0,0,.05-.13.84.84,0,0,0,0-.14s0-.09,0-.13a1.78,1.78,0,0,0,0-.27.52.52,0,0,0-.07-.2.35.35,0,0,0-.15-.13.6.6,0,0,0-.25,0h-.11v1.24Z"/><path class="cls-3" d="M27.93,41v0h-.17v.81c0,.06,0,.11,0,.17a.45.45,0,0,0,0,.14.25.25,0,0,0,.09.1.28.28,0,0,0,.16,0l.16,0,.11-.06a.28.28,0,0,0,.07-.08.41.41,0,0,0,0-.09.47.47,0,0,0,0-.09s0,0,0-.07V41h-.16v0h.36v0h-.17v.85s0,0,0,.07a.42.42,0,0,1,0,.09.44.44,0,0,1,0,.1.27.27,0,0,1-.07.09l-.12.06-.18,0a.84.84,0,0,1-.28,0,.4.4,0,0,1-.16-.1.31.31,0,0,1-.08-.14.73.73,0,0,1,0-.16V41h-.17v0Z"/><path class="cls-3" d="M28.82,41.9V42l0,.08,0,.08.06.08.08.06.07,0h.13a.37.37,0,0,0,.16,0,.28.28,0,0,0,.1-.07.27.27,0,0,0,0-.09.3.3,0,0,0,0-.08.18.18,0,0,0,0-.11.25.25,0,0,0-.08-.07l-.12,0-.14,0-.14,0-.12-.07a.33.33,0,0,1-.08-.11.37.37,0,0,1,0-.16.31.31,0,0,1,0-.14.38.38,0,0,1,.09-.12.46.46,0,0,1,.14-.08.47.47,0,0,1,.17,0h.11l.08,0,.06,0h.08l0,0h0v.34h0l0-.13a.48.48,0,0,0-.06-.11.29.29,0,0,0-.1-.08.31.31,0,0,0-.15,0l-.13,0-.09.05a.23.23,0,0,0-.06.07.18.18,0,0,0,0,.08.16.16,0,0,0,0,.11l.09.07.12.05.14,0,.14.05.12.07a.34.34,0,0,1,.09.11.31.31,0,0,1,0,.15.4.4,0,0,1,0,.17.43.43,0,0,1-.1.14.5.5,0,0,1-.16.09.55.55,0,0,1-.2,0h-.11l-.1,0-.09,0h-.09l0,0h0v-.4Z"/><path class="cls-3" d="M30.3,41h-.12l-.09,0a.3.3,0,0,0-.07.09.78.78,0,0,0-.06.15h0V41h1.14v.33h0a.78.78,0,0,0-.06-.15.3.3,0,0,0-.07-.09l-.09,0h-.18v1.24h.17v0h-.6v0h.17V41Z"/><path class="cls-3" d="M31.2,41v0h.72l.14,0a.31.31,0,0,1,.11.09.26.26,0,0,1,0,.15.23.23,0,0,1,0,.12.26.26,0,0,1-.08.08l-.12,0-.13,0h0l.16,0,.12,0a.23.23,0,0,1,.08.09.42.42,0,0,1,0,.16v.18a.64.64,0,0,0,0,.11.09.09,0,0,0,0,.05h0l.06,0,0,0,0,0,0,0,0,0-.06,0h-.08a.32.32,0,0,1-.16,0,.21.21,0,0,1-.08-.08.26.26,0,0,1,0-.1s0-.07,0-.1,0-.1,0-.14a.41.41,0,0,0,0-.12.2.2,0,0,0-.07-.09.23.23,0,0,0-.13,0h-.12v.65h.17v0h-.6v0h.17V41Zm.5.56.13,0a.16.16,0,0,0,.07-.06.21.21,0,0,0,0-.08.69.69,0,0,0,0-.1.74.74,0,0,0,0-.14.25.25,0,0,0,0-.09.15.15,0,0,0-.07-.05l-.11,0h-.08v.56Z"/><path class="cls-3" d="M33.11,41v0h-.17v1.24h.17v0h-.6v0h.17V41h-.17v0Z"/><path class="cls-3" d="M34.33,41v.31h0l0-.08a.38.38,0,0,0-.06-.09.35.35,0,0,0-.1-.08A.31.31,0,0,0,34,41h-.29v.56h.1l.11,0,.08-.05a.3.3,0,0,0,.05-.09.64.64,0,0,0,0-.11h0v.56h0l0-.1a.3.3,0,0,0,0-.09l-.07-.06-.11,0h-.12v.65H34a.37.37,0,0,0,.27-.11.46.46,0,0,0,.09-.12.66.66,0,0,0,.05-.15h0v.4H33.25v0h.17V41h-.17v0Z"/><path class="cls-3" d="M34.63,41.9V42l0,.08,0,.08.06.08.08.06.07,0h.13a.37.37,0,0,0,.16,0,.29.29,0,0,0,.1-.07.27.27,0,0,0,0-.09.29.29,0,0,0,0-.08.18.18,0,0,0,0-.11.25.25,0,0,0-.08-.07l-.12,0-.14,0-.14,0-.12-.07a.33.33,0,0,1-.08-.11.37.37,0,0,1,0-.16.31.31,0,0,1,0-.14.37.37,0,0,1,.09-.12.45.45,0,0,1,.14-.08.47.47,0,0,1,.18,0h.1l.08,0,.06,0h.08l0,0h0v.34h0l0-.13a.47.47,0,0,0-.06-.11.29.29,0,0,0-.1-.08.31.31,0,0,0-.15,0l-.13,0-.09.05a.23.23,0,0,0-.06.07.18.18,0,0,0,0,.08.16.16,0,0,0,0,.11l.09.07.12.05.14,0,.14.05.12.07a.35.35,0,0,1,.09.11.32.32,0,0,1,0,.15.4.4,0,0,1,0,.17.42.42,0,0,1-.1.14.5.5,0,0,1-.16.09.55.55,0,0,1-.2,0h-.11l-.1,0-.09,0h-.09l0,0h0v-.4Z"/><path class="cls-3" d="M14.5,43.89a.73.73,0,0,1,.16-.21.72.72,0,0,1,.22-.14.64.64,0,0,1,.24,0,.7.7,0,0,1,.46.18.68.68,0,0,1,.15.21.65.65,0,0,1,.06.28.62.62,0,0,1-.06.26.71.71,0,0,1-.36.36.64.64,0,0,1-.26.05.66.66,0,0,1-.26-.05.69.69,0,0,1-.37-.35.65.65,0,0,1,0-.54Zm.25.59a.55.55,0,0,0,.07.2.24.24,0,0,0,.12.1.47.47,0,0,0,.17,0,.38.38,0,0,0,.21,0,.3.3,0,0,0,.11-.14.67.67,0,0,0,0-.21c0-.08,0-.17,0-.26s0-.16,0-.24a.62.62,0,0,0,0-.2.31.31,0,0,0-.12-.14.46.46,0,0,0-.42,0,.3.3,0,0,0-.12.13.66.66,0,0,0-.05.21,2.57,2.57,0,0,0,0,.26A1.86,1.86,0,0,0,14.75,44.48Z"/><path class="cls-3" d="M15.93,43.54v0H17v.31h0l-.06-.12-.07-.09-.09-.06-.13,0h-.27v.58h.1l.11,0,.08-.05a.29.29,0,0,0,.05-.09.65.65,0,0,0,0-.11h0v.56h0l0-.1a.29.29,0,0,0,0-.09l-.07-.06-.11,0h-.12v.63h.17v0h-.6v0h.17V43.54Z"/><path class="cls-3" d="M17.91,43v0h.77l.25,0,.26.06a1.16,1.16,0,0,1,.24.11.79.79,0,0,1,.2.17.8.8,0,0,1,.14.25,1,1,0,0,1,.05.33,1,1,0,0,1-.05.33.81.81,0,0,1-.14.25.79.79,0,0,1-.2.17,1.16,1.16,0,0,1-.23.11L19,44.8l-.22,0h-.83v0h.24V43Zm.75,1.78a.9.9,0,0,0,.29,0,.61.61,0,0,0,.2-.11.55.55,0,0,0,.13-.16.82.82,0,0,0,.07-.19,1.19,1.19,0,0,0,0-.19c0-.07,0-.13,0-.18a2.56,2.56,0,0,0,0-.38.74.74,0,0,0-.1-.29.5.5,0,0,0-.21-.19.87.87,0,0,0-.36-.06h-.16v1.77Z"/><path class="cls-3" d="M20,44.78l.54-1.32h0l.57,1.32h.16v0h-.61v0h.17l-.21-.49h-.43l-.2.49h.16v0h-.34v0Zm.24-.51h.42l-.21-.49Z"/><path class="cls-3" d="M22,43.52v0h-.17v1.24h.3l.12,0a.33.33,0,0,0,.11-.07.47.47,0,0,0,.1-.12.62.62,0,0,0,.07-.18h0v.41H21.4v0h.17V43.54H21.4v0Z"/><path class="cls-3" d="M23.3,43.52v0h-.17v1.24h.3l.12,0a.33.33,0,0,0,.11-.07.47.47,0,0,0,.1-.12.63.63,0,0,0,.07-.18h0v.41H22.7v0h.17V43.54H22.7v0Z"/><path class="cls-3" d="M24,44.78l.54-1.32h0l.57,1.32h.16v0h-.61v0h.17l-.21-.49h-.43l-.2.49h.16v0h-.34v0Zm.24-.51h.42l-.21-.49Z"/><path class="cls-3" d="M25.45,44.41v.06l0,.08,0,.08.06.08.08.06.07,0h.13a.37.37,0,0,0,.16,0,.29.29,0,0,0,.1-.07.27.27,0,0,0,0-.09.29.29,0,0,0,0-.08.18.18,0,0,0,0-.11.25.25,0,0,0-.08-.07l-.12,0-.14,0-.14,0-.12-.07a.33.33,0,0,1-.08-.11.37.37,0,0,1,0-.16.31.31,0,0,1,0-.14.37.37,0,0,1,.09-.12.45.45,0,0,1,.14-.08.47.47,0,0,1,.18,0H26l.08,0,.06,0h.08l0,0h0v.34h0l0-.13a.46.46,0,0,0-.06-.11.29.29,0,0,0-.1-.08.31.31,0,0,0-.15,0l-.13,0-.09.05a.23.23,0,0,0-.06.07.18.18,0,0,0,0,.08.16.16,0,0,0,0,.11l.09.07.12.05L26,44l.14.05.12.07a.35.35,0,0,1,.09.11.31.31,0,0,1,0,.15.41.41,0,0,1,0,.17.42.42,0,0,1-.1.14.5.5,0,0,1-.16.09.55.55,0,0,1-.2,0h-.11l-.1,0-.09,0h-.09l0,0h0v-.4Z"/><path class="cls-3" d="M26.87,45.08a.23.23,0,0,0,.08-.17.15.15,0,0,0,0-.07l0,0-.05,0h-.12l-.06,0,0-.06a.18.18,0,0,1,0-.08.18.18,0,0,1,0-.08l0-.06.06,0h.07a.22.22,0,0,1,.17.08.34.34,0,0,1,.07.23.41.41,0,0,1,0,.18.55.55,0,0,1-.09.14l-.12.11-.12.08,0,0Z"/><path class="cls-3" d="M28.87,43v0h-.24v1.77h.24v0H28v0h.24V43H28v0Z"/><path class="cls-3" d="M29.46,43.52l.6.86h0v-.84H29.9v0h.36v0H30.1v1.26h0l-.82-1.16h0v1.14h.17v0H29v0h.17V43.54H29v0Z"/><path class="cls-3" d="M31.48,43.89l0-.13a.52.52,0,0,0-.07-.12.36.36,0,0,0-.11-.09.34.34,0,0,0-.16,0,.39.39,0,0,0-.21,0,.31.31,0,0,0-.12.14.65.65,0,0,0,0,.21q0,.12,0,.26a1.84,1.84,0,0,0,0,.31.55.55,0,0,0,.07.2.25.25,0,0,0,.12.1.47.47,0,0,0,.18,0,.33.33,0,0,0,.15,0,.4.4,0,0,0,.12-.09.5.5,0,0,0,.09-.12.62.62,0,0,0,.05-.14h0v.38h0l0,0h-.09l-.08,0-.1,0h-.11a.65.65,0,0,1-.26-.05.69.69,0,0,1-.37-.35.65.65,0,0,1,0-.54.72.72,0,0,1,.38-.35.63.63,0,0,1,.24,0h.11l.09,0,.08,0h.1a0,0,0,0,0,0,0h0v.37Z"/><path class="cls-3" d="M31.85,44.52a.18.18,0,0,1,.31.13.17.17,0,0,1-.05.13.18.18,0,0,1-.26,0,.17.17,0,0,1-.05-.13A.18.18,0,0,1,31.85,44.52Z"/><path class="cls-4" d="M13,22.37l-.09-.24a1,1,0,0,0-.14-.23.67.67,0,0,0-.21-.17.66.66,0,0,0-.31-.07.73.73,0,0,0-.4.09.58.58,0,0,0-.22.26,1.23,1.23,0,0,0-.09.39q0,.23,0,.5a3.51,3.51,0,0,0,0,.59,1,1,0,0,0,.13.37.47.47,0,0,0,.23.19.9.9,0,0,0,.33.06.63.63,0,0,0,.28-.06.78.78,0,0,0,.22-.16,1,1,0,0,0,.16-.23,1.16,1.16,0,0,0,.1-.27H13v.73H13a.12.12,0,0,0,0-.06l-.07,0-.11,0-.15,0-.18,0-.21,0a1.24,1.24,0,0,1-.49-.1,1.33,1.33,0,0,1-.41-.27,1.32,1.32,0,0,1-.28-.4,1.23,1.23,0,0,1,0-1,1.36,1.36,0,0,1,.72-.67,1.21,1.21,0,0,1,.45-.09l.2,0,.18,0,.15,0,.11,0h.07a.08.08,0,0,0,0-.06H13v.7Z"/><path class="cls-4" d="M13.37,21.72v0h1.09l.28,0a.92.92,0,0,1,.27.09.6.6,0,0,1,.2.18.48.48,0,0,1,.08.29.43.43,0,0,1-.06.24.51.51,0,0,1-.16.16.8.8,0,0,1-.22.09l-.24,0v0l.3.06a.72.72,0,0,1,.23.09.43.43,0,0,1,.15.17.78.78,0,0,1,.07.3l0,.35a1.23,1.23,0,0,0,0,.2.17.17,0,0,0,.05.1.16.16,0,0,0,.09,0,.16.16,0,0,0,.11,0l.08-.07,0,0-.07.06-.08,0-.1,0h-.15a.61.61,0,0,1-.3-.06A.41.41,0,0,1,15,24a.5.5,0,0,1-.06-.19q0-.11,0-.2t0-.27a.76.76,0,0,0-.06-.24.38.38,0,0,0-.13-.17.44.44,0,0,0-.25-.06h-.23v1.24h.32v0H13.37v0h.32V21.72Zm1,1.06a.59.59,0,0,0,.24,0,.3.3,0,0,0,.13-.11.4.4,0,0,0,.06-.16,1.39,1.39,0,0,0,0-.18,1.43,1.43,0,0,0,0-.26.47.47,0,0,0-.07-.18.29.29,0,0,0-.13-.1.57.57,0,0,0-.22,0h-.15v1.06Z"/><path class="cls-4" d="M17.92,21.67v.59h0l-.06-.15a.74.74,0,0,0-.12-.18.68.68,0,0,0-.19-.15.59.59,0,0,0-.29-.06h-.55v1.06h.19a.56.56,0,0,0,.22,0,.39.39,0,0,0,.15-.1.56.56,0,0,0,.1-.16,1.26,1.26,0,0,0,.06-.21h0v1.07h0a2,2,0,0,0-.06-.19.57.57,0,0,0-.09-.16.4.4,0,0,0-.14-.11.44.44,0,0,0-.2,0h-.23v1.24h.56a.73.73,0,0,0,.29-.05.71.71,0,0,0,.23-.15.85.85,0,0,0,.16-.23,1.21,1.21,0,0,0,.1-.28h0v.75h-2.2v0h.32V21.72h-.32v0Z"/><path class="cls-4" d="M18.43,24.07l1-2.5h.09l1.08,2.5h.3v0H19.77v0h.32l-.4-.92h-.83l-.38.92h.31v0h-.65v0Zm.45-1h.79l-.41-.94Z"/><path class="cls-4" d="M21.68,21.72l-.23,0a.47.47,0,0,0-.18.09.58.58,0,0,0-.14.18,1.5,1.5,0,0,0-.11.29h0v-.63h2.16v.63h0A1.5,1.5,0,0,0,23,22a.58.58,0,0,0-.14-.18.47.47,0,0,0-.18-.09l-.23,0H22.3v2.35h.32v0H21.48v0h.32V21.72Z"/><path class="cls-4" d="M25.45,21.67v.59h0l-.06-.15a.75.75,0,0,0-.12-.18.67.67,0,0,0-.19-.15.59.59,0,0,0-.29-.06h-.55v1.06h.19a.57.57,0,0,0,.22,0,.38.38,0,0,0,.15-.1.56.56,0,0,0,.1-.16,1.26,1.26,0,0,0,.06-.21h0v1.07h0a2,2,0,0,0-.06-.19.57.57,0,0,0-.09-.16.41.41,0,0,0-.14-.11.44.44,0,0,0-.2,0h-.23v1.24h.56a.73.73,0,0,0,.29-.05.72.72,0,0,0,.23-.15.86.86,0,0,0,.16-.23,1.22,1.22,0,0,0,.1-.28h0v.75h-2.2v0h.32V21.72h-.32v0Z"/><path class="cls-4" d="M28,23.63a.63.63,0,0,1-.08.25.56.56,0,0,1-.2.2.75.75,0,0,1-.39.09l-.19,0a.57.57,0,0,1-.18-.06.36.36,0,0,1-.13-.11.31.31,0,0,1-.05-.18s0,0,0-.06a.18.18,0,0,1,0-.08.23.23,0,0,1,.08-.07.31.31,0,0,1,.16,0h.06l.07,0,.06,0a.15.15,0,0,1,0,.09.37.37,0,0,1,0,.06l0,.08,0,.08v0a.14.14,0,0,0,0,.08l0,0h.09a.14.14,0,0,0,.09,0,.13.13,0,0,0,0-.06.23.23,0,0,0,0-.07s0,0,0-.07V21.72H27.2v0h1.13v0H28v1.7C28,23.47,28,23.55,28,23.63Z"/><path class="cls-4" d="M28.69,22.37A1.37,1.37,0,0,1,29,22a1.36,1.36,0,0,1,.42-.26,1.22,1.22,0,0,1,.45-.09,1.33,1.33,0,0,1,.88.34,1.28,1.28,0,0,1,.29.4,1.23,1.23,0,0,1,.11.53,1.17,1.17,0,0,1-.1.49,1.35,1.35,0,0,1-.69.69,1.21,1.21,0,0,1-.49.1,1.25,1.25,0,0,1-.49-.1A1.33,1.33,0,0,1,29,23.8a1.31,1.31,0,0,1-.28-.4,1.23,1.23,0,0,1,0-1Zm.48,1.12a1.05,1.05,0,0,0,.13.38.47.47,0,0,0,.23.19.9.9,0,0,0,.33.06.72.72,0,0,0,.4-.09.58.58,0,0,0,.22-.26,1.26,1.26,0,0,0,.09-.4q0-.23,0-.5t0-.46a1.18,1.18,0,0,0-.09-.39.6.6,0,0,0-.22-.27.87.87,0,0,0-.79,0,.58.58,0,0,0-.22.26,1.25,1.25,0,0,0-.1.39,4.75,4.75,0,0,0,0,.5A3.54,3.54,0,0,0,29.18,23.49Z"/><path class="cls-4" d="M31.42,21.72v0h1.09l.28,0a.93.93,0,0,1,.27.09.59.59,0,0,1,.2.18.46.46,0,0,1,.08.28.4.4,0,0,1-.08.25.65.65,0,0,1-.19.17,1,1,0,0,1-.23.1l-.2,0h0l.28,0a.91.91,0,0,1,.27.11.64.64,0,0,1,.2.19.54.54,0,0,1,.08.3.52.52,0,0,1-.1.33.74.74,0,0,1-.25.21,1.08,1.08,0,0,1-.31.11l-.3,0H31.42v0h.32V21.72Zm1,1.06a.59.59,0,0,0,.24,0,.3.3,0,0,0,.13-.11.39.39,0,0,0,.06-.16,1.34,1.34,0,0,0,0-.18,1.43,1.43,0,0,0,0-.26.47.47,0,0,0-.07-.18.29.29,0,0,0-.13-.1.57.57,0,0,0-.22,0h-.15v1.06Zm.06,1.3.2,0a.31.31,0,0,0,.15-.1.5.5,0,0,0,.09-.2,1.44,1.44,0,0,0,0-.34,1.56,1.56,0,0,0,0-.16.59.59,0,0,0-.06-.19.45.45,0,0,0-.14-.17.44.44,0,0,0-.27-.07h-.2v1.24Z"/><path class="cls-4" d="M33.92,23.35l0,.11a1,1,0,0,0,0,.14l.08.16a.75.75,0,0,0,.12.15.7.7,0,0,0,.15.12l.14.06.13,0h.11a.69.69,0,0,0,.3-.06.53.53,0,0,0,.18-.14.52.52,0,0,0,.09-.17.58.58,0,0,0,0-.16.35.35,0,0,0-.06-.21.48.48,0,0,0-.16-.14l-.23-.09-.26-.08L34.37,23a.87.87,0,0,1-.23-.14.63.63,0,0,1-.16-.21.7.7,0,0,1-.06-.31.6.6,0,0,1,.06-.27.72.72,0,0,1,.17-.23.87.87,0,0,1,.26-.16.9.9,0,0,1,.33-.06l.2,0,.15,0,.12,0,.09,0,.06,0,0-.06h.05v.65h0l-.09-.24a.89.89,0,0,0-.12-.21.55.55,0,0,0-.18-.15.59.59,0,0,0-.28-.06.71.71,0,0,0-.24,0,.56.56,0,0,0-.18.1.44.44,0,0,0-.11.14.34.34,0,0,0,0,.15.31.31,0,0,0,.06.2.55.55,0,0,0,.17.14l.24.1.27.09.27.1a.93.93,0,0,1,.24.14.66.66,0,0,1,.17.2.6.6,0,0,1,.06.29.76.76,0,0,1-.07.32.8.8,0,0,1-.19.27,1,1,0,0,1-.3.18,1.07,1.07,0,0,1-.39.07l-.21,0-.2,0-.16,0L34,24l-.07,0a.14.14,0,0,0,0,.06h-.06v-.76Z"/><path class="cls-3" d="M14.55,2.67a2.56,2.56,0,0,0-.65.08,1.34,1.34,0,0,0-.52.26,1.71,1.71,0,0,0-.41.52,4.47,4.47,0,0,0-.33.85h-.13V2.53h6.21V4.39h-.13a4.47,4.47,0,0,0-.33-.85A1.71,1.71,0,0,0,17.87,3a1.35,1.35,0,0,0-.52-.26,2.57,2.57,0,0,0-.65-.08h-.36V9.62h.91v.14H14V9.62h.91V2.67Z"/><path class="cls-3" d="M22.73,2.53v.14h-.91V6h2.86V2.67h-.91V2.53H27v.14h-.91V9.62H27v.14H23.77V9.62h.91V6.15H21.82V9.62h.91v.14H19.47V9.62h.91V2.67h-.91V2.53Z"/><path class="cls-3" d="M33.67,2.53V4.27h-.13a3.67,3.67,0,0,0-.17-.44A2.2,2.2,0,0,0,33,3.3a2,2,0,0,0-.55-.44,1.67,1.67,0,0,0-.82-.19H30.09V5.81h.55a1.6,1.6,0,0,0,.62-.11,1.11,1.11,0,0,0,.42-.3A1.66,1.66,0,0,0,32,4.92a3.76,3.76,0,0,0,.18-.62h.13V7.46h-.13q-.07-.29-.16-.57a1.71,1.71,0,0,0-.25-.48,1.17,1.17,0,0,0-.39-.33A1.24,1.24,0,0,0,30.76,6h-.66V9.62h1.63a2.06,2.06,0,0,0,.82-.16A2,2,0,0,0,33.19,9a2.52,2.52,0,0,0,.47-.67A3.66,3.66,0,0,0,34,7.54h.13V9.76H27.75V9.62h.91V2.67h-.91V2.53Z"/><path class="cls-3" d="M8.15,11.75v.14H7.24v6.95H8.87a2.05,2.05,0,0,0,.66-.11,1.81,1.81,0,0,0,.62-.37,2.6,2.6,0,0,0,.53-.67,3.59,3.59,0,0,0,.36-1h.13V19H4.89v-.14H5.8V11.9H4.89v-.14Z"/><path class="cls-3" d="M15.18,11.75v.14h-.91v4.56q0,.48,0,.93a2.51,2.51,0,0,0,.21.81,1.37,1.37,0,0,0,.49.57,1.52,1.52,0,0,0,.87.22,2.73,2.73,0,0,0,.9-.13,1.81,1.81,0,0,0,.6-.34,1.52,1.52,0,0,0,.37-.47,2.36,2.36,0,0,0,.19-.52,2.72,2.72,0,0,0,.07-.49q0-.23,0-.38V11.9h-.9v-.14h2v.14h-.92v4.76q0,.16,0,.41a2.56,2.56,0,0,1-.08.52,2.65,2.65,0,0,1-.21.55,1.53,1.53,0,0,1-.41.49,2.13,2.13,0,0,1-.67.36,3.16,3.16,0,0,1-1,.14,4.51,4.51,0,0,1-1.55-.22,2.21,2.21,0,0,1-.9-.57,1.75,1.75,0,0,1-.41-.8,4.17,4.17,0,0,1-.1-.9V11.9h-.92v-.14Z"/><path class="cls-3" d="M22,11.75l3.3,4.84h0V11.9h-.91v-.14h2v.14h-.91V19h-.27l-4.46-6.51h0v6.37h.91V19h-2v-.14h.91V11.9h-.91v-.14Z"/><path class="cls-3" d="M33,13.83q-.11-.34-.26-.71a2.91,2.91,0,0,0-.4-.68,1.94,1.94,0,0,0-.6-.51,1.85,1.85,0,0,0-.9-.2,2.05,2.05,0,0,0-1.14.27,1.7,1.7,0,0,0-.63.76,3.72,3.72,0,0,0-.27,1.16q-.06.68-.06,1.48a10.63,10.63,0,0,0,.12,1.75,3.07,3.07,0,0,0,.37,1.1,1.37,1.37,0,0,0,.65.57,2.54,2.54,0,0,0,1,.16,1.76,1.76,0,0,0,.81-.18,2.24,2.24,0,0,0,.64-.48,2.83,2.83,0,0,0,.47-.69,3.49,3.49,0,0,0,.28-.8h.16V19h-.16a.35.35,0,0,0-.12-.17.38.38,0,0,0-.21,0,1.14,1.14,0,0,0-.31.06l-.43.12-.53.12a3.18,3.18,0,0,1-.6.06,3.5,3.5,0,0,1-1.4-.29A3.82,3.82,0,0,1,28.28,18a3.89,3.89,0,0,1-.82-1.18,3.72,3.72,0,0,1,0-3,4,4,0,0,1,.88-1.2,3.92,3.92,0,0,1,1.19-.77,3.41,3.41,0,0,1,1.29-.27,2.7,2.7,0,0,1,.59.06l.51.13.42.13a1.07,1.07,0,0,0,.32.06.47.47,0,0,0,.21,0,.24.24,0,0,0,.1-.18h.16v2.07Z"/><path class="cls-3" d="M37.41,11.75v.14H36.5v3.33h2.86V11.9h-.91v-.14h3.26v.14H40.8v6.95h.91V19H38.45v-.14h.91V15.37H36.5v3.47h.91V19H34.15v-.14h.91V11.9h-.91v-.14Z"/><polygon class="cls-2" points="23.75 34.22 19.31 34.22 19.31 26.99 23.75 26.99 23.75 34.22 23.75 34.22"/><polygon class="cls-5" points="23.75 34.22 19.31 34.22 19.31 26.99 23.75 26.99 23.75 34.22 23.75 34.22"/><path class="cls-4" d="M23.18,27.11s.68,4.84-.4,5.75a7.26,7.26,0,0,1-3.47,1v1.25l7.85.06V27l-4,.06Z"/><path class="cls-3" d="M18.86,26.48V38h8.87V26.48Zm.76,5.46a2.39,2.39,0,0,0,1.92-.72L21.09,31a1.73,1.73,0,0,1-1.47.48V27.31H23v4a1.7,1.7,0,0,1-.5,1.22,4.57,4.57,0,0,1-2.91.85V31.94Zm7.26,2.95H19.63V34A4.55,4.55,0,0,0,23,32.78a1.9,1.9,0,0,0,.5-1.19c.05-.39,0-4.21,0-4.21h3.34v7.52Z"/><path class="cls-2" d="M21.64,36.59a0,0,0,0,1,0,0h-.9a0,0,0,0,1,0,0V35.8a0,0,0,0,1,0,0h.9a0,0,0,0,1,0,0v.79Z"/><path class="cls-3" d="M21.29,36.28a0,0,0,0,1,0,0h-.2a0,0,0,0,1,0,0v-.16a0,0,0,0,1,0,0h.2a0,0,0,0,1,0,0v.16Z"/><path class="cls-2" d="M22.75,36.59a0,0,0,0,1,0,0h-.9a0,0,0,0,1,0,0V35.8a0,0,0,0,1,0,0h.9a0,0,0,0,1,0,0v.79Z"/><path class="cls-3" d="M22.4,36.28a0,0,0,0,1,0,0h-.2a0,0,0,0,1,0,0v-.16a0,0,0,0,1,0,0h.2a0,0,0,0,1,0,0v.16Z"/><polygon class="cls-2" points="23.45 35.35 23.45 35.78 22.86 35.78 22.86 36.62 23.78 36.62 23.78 35.94 23.78 35.78 23.78 35.35 23.45 35.35 23.45 35.35"/><path class="cls-3" d="M23.47,36.28a0,0,0,0,1,0,0h-.2a0,0,0,0,1,0,0v-.16a0,0,0,0,1,0,0h.2a0,0,0,0,1,0,0v.16Z"/><path class="cls-2" d="M25,35.77a0,0,0,0,0,0,0v.52a0,0,0,0,1,0,0h-.09a0,0,0,0,1,0,0V35.8a0,0,0,0,0,0,0h-.33a0,0,0,0,0,0,0v.52a0,0,0,0,1,0,0h-.1a0,0,0,0,1,0,0V35.8a0,0,0,0,0,0,0H24a0,0,0,0,0,0,0v.79a0,0,0,0,0,0,0h1.32a0,0,0,0,0,0,0V35.8a0,0,0,0,0,0,0Z"/><path class="cls-2" d="M25.84,36.59a0,0,0,0,1,0,0h-.33a0,0,0,0,1,0,0v-.74a0,0,0,0,1,0,0h.33a0,0,0,0,1,0,0v.74Z"/><path class="cls-2" d="M25.46,35.38a0,0,0,0,1,0,0h.31a0,0,0,0,1,0,0v.31a0,0,0,0,1,0,0h-.31a0,0,0,0,1,0,0v-.31Z"/><path class="cls-2" d="M27,36.58a0,0,0,0,1,0,0H26.6a0,0,0,0,1,0,0V35.37a0,0,0,0,1,0,0H27a0,0,0,0,1,0,0v1.21Z"/><path class="cls-2" d="M26.41,36.58a0,0,0,0,1,0,0H26a0,0,0,0,1,0,0V35.37a0,0,0,0,1,0,0h.38a0,0,0,0,1,0,0v1.21Z"/><path class="cls-2" d="M19.6,35.78v.84h0v.15s.31,0,.41-.16l.08.1s-.07.2-.48.17v.36a5.49,5.49,0,0,0,.56,0,.49.49,0,0,0,.29-.17.45.45,0,0,0,.1-.25v-1Z"/><path class="cls-3" d="M20,36.17a.11.11,0,1,1,.11.11.11.11,0,0,1-.11-.11Z"/><path class="cls-3" d="M20.69,29.08a.65.65,0,1,1,.65.65.65.65,0,0,1-.65-.65Z"/><path class="cls-2" d="M26.81,37A.33.33,0,0,1,27,37a.29.29,0,0,1,.12.12.32.32,0,0,1,0,.32.3.3,0,0,1-.12.12.32.32,0,0,1-.32,0,.3.3,0,0,1-.12-.12.32.32,0,0,1,0-.16.32.32,0,0,1,0-.16.3.3,0,0,1,.12-.12A.33.33,0,0,1,26.81,37Zm0,.06a.26.26,0,0,0-.13,0,.24.24,0,0,0-.09.09.25.25,0,0,0,0,.26.24.24,0,0,0,.09.09.25.25,0,0,0,.25,0,.25.25,0,0,0,.09-.09.26.26,0,0,0,0-.26.24.24,0,0,0-.09-.09A.26.26,0,0,0,26.81,37Zm-.14.42v-.34h.23l0,0a.09.09,0,0,1,0,0,.09.09,0,0,1,0,.06l-.07,0h0l0,0,0,0,0,.07h-.08l0-.05,0-.07h-.06v.14Zm.07-.19h.1l0,0v-.05l0,0h-.1Z"/></svg>