<?xml version="1.0" encoding="UTF-8" standalone="no"?>
<!DOCTYPE svg PUBLIC "-//W3C//DTD SVG 1.1//EN" "http://www.w3.org/Graphics/SVG/1.1/DTD/svg11.dtd">
<svg width="100%" height="100%" viewBox="0 0 95 157" version="1.1" xmlns="http://www.w3.org/2000/svg" xmlns:xlink="http://www.w3.org/1999/xlink" xml:space="preserve" style="fill-rule:evenodd;clip-rule:evenodd;stroke-linejoin:round;stroke-miterlimit:1.41421;">
    <g id="good-logo-faceonly" transform="matrix(0.4528,0,0,0.7504,0,0)">
        <rect x="0" y="0" width="208.333" height="208.333" style="fill:none;"/>
        <clipPath id="_clip1">
            <rect x="0" y="0" width="208.333" height="208.333"/>
        </clipPath>
        <g clip-path="url(#_clip1)">
            <g transform="matrix(2.20848,0,0,1.33262,0,0)">
                <path d="M0.02,104.1L0.02,154.27L54.18,143.89L86.7,112.16L89.97,0.01L0.02,0.01L0.02,104.1Z" style="fill:white;fill-rule:nonzero;"/>
            </g>
            <g transform="matrix(2.20848,0,0,1.33262,0,0)">
                <path d="M33.49,85.67C24.88,97.18 21.49,98.67 0.15,98.67C-4.54,98.67 -5.46,100.2 -5.85,104.87C-6.24,109.54 -5.67,110.32 -0.99,110.48C28.7,111.48 32.35,103.93 42.15,92.83L33.62,85.73L33.49,85.67Z" style="fill-rule:nonzero;"/>
            </g>
            <g transform="matrix(2.20848,0,0,1.33262,0,0)">
                <path d="M80.76,0.72L80.76,92.72C80.76,126.06 47.07,143.84 19.12,143.84L-0.78,143.84C-5.39,143.98 -5.21,145.92 -5.21,150.49C-5.21,150.49 -4.78,152.18 -4.76,152.27C-4.63,157 -3.71,156 1,155.86L16.49,155.86C68.16,154.86 93.17,124.48 93.17,94.64L93.17,0.27C93.17,-4.42 91.66,-3.65 86.95,-3.65C82.24,-3.65 80.76,-3.91 80.76,0.72Z" style="fill-rule:nonzero;"/>
            </g>
            <g transform="matrix(2.20848,0,0,1.33262,0,0)">
                <path d="M58.28,42.84C58.28,52.166 50.606,59.84 41.28,59.84C31.954,59.84 24.28,52.166 24.28,42.84C24.28,33.514 31.954,25.84 41.28,25.84C50.606,25.84 58.28,33.514 58.28,42.84L58.28,42.84Z" style="fill-rule:nonzero;"/>
            </g>
            <g id="cSymbol" transform="matrix(2.20848,0,0,1.33262,0,0)">
                <path d="M89.52,134.48C90.506,134.451 91.465,134.81 92.19,135.48C92.868,136.163 93.248,137.088 93.248,138.05C93.248,140.052 91.601,141.7 89.598,141.7C89.592,141.7 89.586,141.7 89.58,141.7C88.61,141.749 87.665,141.368 87,140.66C86.274,139.995 85.861,139.055 85.861,138.071C85.861,137.175 86.204,136.311 86.82,135.66L87,135.48C87.689,134.818 88.615,134.458 89.57,134.48L89.52,134.48ZM87.52,136.11C87,136.637 86.708,137.349 86.708,138.09C86.708,139.634 87.976,140.906 89.52,140.91C90.273,140.936 91.002,140.637 91.52,140.09C92.58,139.008 92.58,137.252 91.52,136.17C91.002,135.623 90.273,135.324 89.52,135.35C88.77,135.342 88.049,135.638 87.52,136.17L87.52,136.11ZM88.93,136.52L88.93,137.89L89.26,137.89C89.89,137.89 90.16,137.6 90.16,137.14C90.16,136.68 89.87,136.51 89.34,136.51L88.93,136.52ZM89.34,135.89C90.42,135.89 90.99,136.3 90.99,137.05C90.984,137.588 90.662,138.074 90.17,138.29L91.17,140.29L90.17,140.29L89.31,138.47L89,138.47L89,140.29L88.22,140.29L88.22,135.94L89.34,135.89Z" style="fill:white;fill-rule:nonzero;"/>
            </g>
        </g>
    </g>
</svg>
