<?xml version="1.0" encoding="utf-8"?>
<!-- Generator: Adobe Illustrator 21.1.0, SVG Export Plug-In . SVG Version: 6.00 Build 0)  -->
<svg version="1.1" id="Layer_1" xmlns="http://www.w3.org/2000/svg" xmlns:xlink="http://www.w3.org/1999/xlink" x="0px" y="0px"
	 viewBox="0 0 450.6 454" style="enable-background:new 0 0 450.6 454;" xml:space="preserve">
<style type="text/css">
	.st0{fill:#666666;}
</style>
<path class="st0" d="M450.3,155.8c0-0.3-0.1-0.5-0.2-0.8h0h0c-0.1-0.5-0.2-1.1-0.3-1.6c-0.1-0.3-0.2-0.6-0.3-0.9
	c-0.1-0.5-0.3-0.9-0.5-1.4c-0.1-0.3-0.3-0.6-0.4-0.9c-0.2-0.4-0.4-0.9-0.7-1.3c-0.2-0.3-0.4-0.6-0.6-0.9c-0.7-1.1-1.5-2.1-2.4-3.1
	c-0.3-0.3-0.5-0.5-0.8-0.8c-0.4-0.3-0.7-0.6-1.1-0.9c-0.3-0.2-0.6-0.5-0.9-0.7c-0.1-0.1-0.2-0.2-0.3-0.2L236,5
	c-6.5-4.3-15-4.3-21.5,0L8.6,142.3c-0.1,0.1-0.2,0.2-0.3,0.2c-0.3,0.2-0.6,0.4-0.9,0.7c-0.7,0.5-1.3,1.1-1.9,1.7
	c-0.9,0.9-1.7,2-2.4,3.1c-0.2,0.3-0.4,0.6-0.6,0.9c-0.2,0.4-0.5,0.8-0.7,1.3c-0.1,0.3-0.3,0.6-0.4,0.9c-0.2,0.5-0.4,0.9-0.5,1.4
	c-0.1,0.3-0.2,0.6-0.3,0.9c-0.1,0.5-0.2,1.1-0.3,1.6c-0.1,0.3-0.1,0.6-0.2,0.8c-0.1,0.8-0.2,1.7-0.2,2.5v137.3
	c0,0.8,0.1,1.7,0.2,2.5c0,0.3,0.1,0.5,0.2,0.8c0.1,0.5,0.2,1.1,0.4,1.6c0.1,0.3,0.2,0.6,0.3,0.9c0.2,0.5,0.3,1,0.5,1.4
	c0.1,0.3,0.3,0.6,0.4,0.9c0.5,1.2,1.2,2.3,2.1,3.3c0.2,0.3,0.4,0.5,0.7,0.8c0.3,0.4,0.6,0.7,1,1c0.2,0.2,0.5,0.5,0.8,0.7
	c0.4,0.3,0.7,0.6,1.1,0.9c0.3,0.2,0.6,0.4,0.8,0.7c0.1,0.1,0.2,0.2,0.3,0.2L214.5,449c3.3,2.2,7,3.3,10.7,3.3
	c3.8,0,7.6-1.1,10.7-3.3l205.9-137.3c0.1-0.1,0.2-0.2,0.3-0.2c0.3-0.2,0.6-0.4,0.9-0.7c0.4-0.3,0.8-0.6,1.1-0.9
	c0.3-0.2,0.5-0.5,0.8-0.8c0.6-0.6,1.1-1.2,1.6-1.9c0.5-0.7,0.9-1.4,1.4-2.1c0.2-0.4,0.5-0.9,0.7-1.3c0.1-0.3,0.3-0.6,0.4-0.9
	c0.2-0.5,0.3-0.9,0.5-1.4c0.1-0.3,0.2-0.6,0.3-0.9c0.1-0.5,0.2-1.1,0.3-1.6c0-0.3,0.1-0.6,0.1-0.8c0.1-0.8,0.2-1.7,0.2-2.5V158.4
	C450.5,157.5,450.4,156.7,450.3,155.8z M244.6,57.3l151.7,101.1l-67.7,45.3v0l-83.9-56.1V57.3z M205.9,57.3v90.3h0L122,203.7
	l-67.7-45.3L205.9,57.3z M38.7,194.6L87.1,227h0l-48.4,32.4V194.6z M205.9,396.7L54.2,295.6l67.7-45.3v0v0l83.9,56.1V396.7z
	 M225.2,272.8L156.8,227l68.5-45.8l68.5,45.8L225.2,272.8z M244.6,396.7v-90.3l83.9-56.1l67.7,45.3L244.6,396.7z M411.8,259.4
	L363.4,227l0,0v0l0,0l48.4-32.4V259.4z"/>
</svg>
