<?xml version="1.0" standalone="no"?>
<!DOCTYPE svg PUBLIC "-//W3C//DTD SVG 20010904//EN"
 "http://www.w3.org/TR/2001/REC-SVG-20010904/DTD/svg10.dtd">
<svg version="1.0" xmlns="http://www.w3.org/2000/svg"
 width="16.000000pt" height="16.000000pt" viewBox="0 0 16.000000 16.000000"
 preserveAspectRatio="xMidYMid meet">
<metadata>
Created by potrace 1.11, written by Peter Selinger 2001-2013
</metadata>
<g transform="translate(0.000000,16.000000) scale(0.006130,-0.006130)"
fill="#000000" stroke="none">
<path d="M0 1774 l0 -836 133 7 c245 12 292 29 394 140 l67 73 73 -60 73 -60
-57 -65 c-160 -182 -282 -233 -559 -233 l-124 0 0 -273 0 -272 78 2 c42 2 167
4 277 7 225 4 312 21 474 90 261 113 431 289 512 531 l24 70 5 858 5 857 -687
0 -688 0 0 -836z m810 360 c81 -24 160 -107 184 -193 29 -105 8 -188 -71 -272
-105 -112 -272 -119 -389 -16 -65 57 -94 123 -94 213 0 195 178 325 370 268z"/>
<path d="M1585 1752 l0 -857 -23 -89 c-73 -287 -265 -518 -547 -659 -96 -48
-239 -98 -345 -121 -58 -12 50 -14 933 -15 l997 -1 0 1300 0 1300 -507 0 -508
0 0 -858z"/>
</g>
</svg>
