<svg id="Layer_1" data-name="Layer 1" xmlns="http://www.w3.org/2000/svg" viewBox="0 0 376.18 292.8"><defs><style>.cls-1{fill:#fff;}</style></defs><title>logo</title><path class="cls-1" d="M82.12,121.75H92.38c15.18,0,27.8,8,27.8,24.51,0,16.89-12.36,25-28,25H82.12Zm6.18,43.9h2.17c12.62,0,23.53-4.73,23.53-19.12S103.09,127.4,90.47,127.4H88.3Z"/><path class="cls-1" d="M128.13,158.88l-5.65,12.42h-6.64l23.66-51.66,23.66,51.66h-6.64l-5.65-12.42Zm11.37-25.7-8.81,20H148.3Z"/><path class="cls-1" d="M172.16,165.65h15v5.65H166V121.75h6.18Z"/><path class="cls-1" d="M198.15,165.65h15v5.65H192V121.75h6.18Z"/><path class="cls-1" d="M229,158.88l-5.65,12.42H216.7l23.66-51.66L264,171.31h-6.64l-5.65-12.42Zm11.37-25.7-8.81,20h17.61Z"/><path class="cls-1" d="M287.55,131.15c-1.84-3.09-4.21-4.67-8-4.67-3.94,0-8.28,2.69-8.28,7,0,3.88,3.81,5.91,6.9,7.1l3.55,1.38c7,2.76,12.29,6.64,12.29,14.92,0,9-7,15.44-15.84,15.44-8,0-14.26-5.92-15.31-13.87l6.24-1.31a9.28,9.28,0,0,0,9.59,9.4c5.32,0,9.13-4.47,9.13-9.66s-4.27-7.62-8.54-9.4l-3.42-1.45c-5.65-2.43-10.78-5.65-10.78-12.55,0-8,7.1-12.82,14.59-12.82a14.14,14.14,0,0,1,12.75,7.49Z"/><path class="cls-1" d="M78.64,206.06v2c0,13.6-9.6,24.05-23.46,24.05s-25-12-25-25.7A25.8,25.8,0,0,1,76,190l-4.34,4.14a19.54,19.54,0,0,0-35.36,12c0,10.38,8.54,20.24,19.26,20.24,7.69,0,16-6.64,16.23-14.72H59v-5.65Z"/><path class="cls-1" d="M89.41,231H83.23V181.48h6.18Z"/><path class="cls-1" d="M103.48,187.13v13.93h17.22v5.65H103.48V231H97.3V181.48h24v5.65Z"/><path class="cls-1" d="M142.54,231h-6.18v-43.9H124.6v-5.65h29.71v5.65H142.54Z"/><path class="cls-1" d="M188.58,217l14-36.54,14,36.54,13.87-35.49h6.7L216.58,233l-14-36.34-14,36.34L168,181.48h6.7Z"/><path class="cls-1" d="M270.53,231H263l-14.59-21h-2.56v21h-6.18V181.48h7.49c4.4,0,9.13.07,13.08,2.3a13.72,13.72,0,0,1,6.51,11.83c0,7.1-4.73,13-11.9,13.87Zm-24.65-26.09h2c6.31,0,13.14-1.18,13.14-9.07S253.64,187,247.53,187h-1.64Z"/><path class="cls-1" d="M281.11,218.61,275.46,231h-6.64l23.66-51.66L316.14,231H309.5l-5.65-12.42Zm11.37-25.7-8.81,20h17.61Z"/><path class="cls-1" d="M325.14,231H319V181.48h7.1c15.25,0,20,5.26,20,14.33,0,10.45-8,14.46-17.35,14.46h-3.55Zm0-26.29h2c6.31,0,13.14-1.18,13.14-9.07S332.9,187,326.79,187h-1.64Z"/><path class="cls-1" d="M38.84,250.67a20,20,0,0,0-13.08-4.86c-11.11,0-19.58,9.27-19.58,20.24s8.41,20.11,19.45,20.11A19.82,19.82,0,0,0,38.84,281v7.29a26.79,26.79,0,0,1-13,3.48A25.65,25.65,0,0,1,0,266.25a26,26,0,0,1,26.35-26.09,23.9,23.9,0,0,1,12.49,3.35Z"/><path class="cls-1" d="M81,290.76H73.47l-14.59-21H56.32v21H50.14V241.21h7.49c4.4,0,9.14.07,13.08,2.3a13.72,13.72,0,0,1,6.51,11.83c0,7.1-4.73,13-11.9,13.87ZM56.32,264.67h2c6.31,0,13.14-1.18,13.14-9.07s-7.36-8.87-13.47-8.87H56.32Z"/><path class="cls-1" d="M91.09,241.21H117.7v5.65H97.26v13.87h19.85v5.65H97.26v18.73H117.7v5.65H91.09Z"/><path class="cls-1" d="M137.61,278.34,132,290.76h-6.64L149,239.11l23.66,51.66H166l-5.65-12.42ZM149,252.65l-8.81,20h17.61Z"/><path class="cls-1" d="M190.06,290.76h-6.18v-43.9H172.12v-5.65h29.71v5.65H190.06Z"/><path class="cls-1" d="M217.93,290.76h-6.18V241.21h6.18Z"/><path class="cls-1" d="M280.89,266A26,26,0,0,1,229,266a26,26,0,0,1,51.92,0Zm-6.18,0c0-10.91-8.15-20-19.78-20s-19.78,9.13-19.78,20a19.78,19.78,0,1,0,39.56,0Z"/><path class="cls-1" d="M291.53,238.84l37.2,39V241.21h6.18V292.8l-37.2-39v36.93h-6.18Z"/><path class="cls-1" d="M369.67,250.61c-1.84-3.09-4.21-4.67-8-4.67-3.94,0-8.28,2.69-8.28,7,0,3.88,3.81,5.92,6.9,7.1l3.55,1.38c7,2.76,12.29,6.64,12.29,14.92,0,9-7,15.44-15.84,15.44-8,0-14.26-5.92-15.31-13.87l6.24-1.31a9.28,9.28,0,0,0,9.59,9.4c5.32,0,9.13-4.47,9.13-9.66s-4.27-7.62-8.54-9.4L358,265.53c-5.65-2.43-10.78-5.65-10.78-12.55,0-8,7.1-12.82,14.59-12.82a14.14,14.14,0,0,1,12.75,7.49Z"/><path class="cls-1" d="M345.9,88c-.52.46-33.23,26.16-76.5,11.19,6.52-4.23,14.28-11.18,18-17.82,9.18-16.61-10.45-15.79-21.14-15.45-2.65.08-5.24.21-7.77.38a41.57,41.57,0,0,0,4.84-18.81c.13-7-2.88-13.17-7.82-14.5-2.47-.66-5.42-.13-8.71,2.2-.86.6-1.65,1.27-2.47,1.91.73-2.48,1.37-4.95,1.91-7.31,1.07-4.73,3-13.67-1.61-17.24-6.29-4.82-13.88,5.1-17.59,9-8,8.45-13.65,20.53-17.58,31.33-.27.76-.52,1.55-.75,2.34a136.52,136.52,0,0,0-27.51-41.15c-16.82-17.45-42.34-21.13-54.83,3.19-5.57,10.84-2.91,21.26,3.85,30.84a21.65,21.65,0,0,0-11.52,5c-10.48,8.7-7.25,18.56.07,25.65-11,1.44-21.8,4.45-27.4,12-1.67,2.23-4.39,7.65-1.78,10.26l.11.1C62.58,102.19,31,87.94,30.84,59.18l-11.42,8.5c1.15,28.43,25.25,43.11,52.12,46.9,14.66,2.06,27.34-.88,40.7-4.78,6.7.62,44,4.08,68.07-.42,8.2-1.54,14.85-4,18.21-7.81,10.74,10,35,6.16,48.34,4.9.94-.09,1.88-.21,2.82-.35l.76.28c12.91,4.85,23.9,6.78,37.53,8.11,21.65,2.09,45.06,2.7,60.5-14.32ZM230.37,33.42c3.9-5.75,7.14-9.17,4.26-.15a141.66,141.66,0,0,1-6,16.26A33.49,33.49,0,0,1,226,54.25c-2.86,3.07-5.72,6.17-8.58,9.23C220.34,52.91,223.84,43.06,230.37,33.42Zm-80.89,42.7c-1.42-.39-2.88-.76-4.25-1.2A73.21,73.21,0,0,1,128,67c-8.8-5.6.6-3.67,4.87-2.76,9.12,1.95,17.15,6.35,25,11.23C155,75.65,152.24,75.88,149.48,76.12ZM138.07,31.59C130,19,143.56,11,156.29,15.21c10.47,3.44,18.53,14.37,25.13,22.64a119.17,119.17,0,0,1,21.13,40.21c-.11.13-.25.25-.36.38s-.06.09-.11.14a81.81,81.81,0,0,0-8.68-2C173.46,64.05,151,51.76,138.07,31.59Zm80.69,45.78c9.22-9,17.93-18.56,27.17-27.52Q256.66,53.33,249,63a20.24,20.24,0,0,1-3.5,4.75A75.17,75.17,0,0,0,218.76,77.37Zm20.45,10c-.46,0-.91-.08-1.38-.11a65.92,65.92,0,0,0,8.31-6c2.65-.33,5.34-.57,8.12-.68,4.35-.14,16.31-1.86,22,0-4.67,6.11-14.14,9.16-22.68,10.58C248.93,89.3,244.2,87.69,239.2,87.37Zm-85.35,12c-2.67.15-5.38.35-8,.41a152.71,152.71,0,0,1-33.52-2.62c-17.7-3.51-.36-5.42,7.52-6.25,16.84-1.75,32.72.46,48.38,3.45Q161,96.82,153.85,99.37Z"/></svg>