<svg id="Layer_1" data-name="Layer 1" xmlns="http://www.w3.org/2000/svg" viewBox="0 0 103 80"><defs><style>.cls-1{fill:#0e75dd;}.cls-2{fill:#fff;}</style></defs><title>miller-icon</title><rect class="cls-1" width="103" height="80"/><path class="cls-2" d="M39.92,32.84l-4,11a23.82,23.82,0,0,0-1.46,6.47c0,2.79,1.84,3.36,4.19,3.36.44,0,1.14.06,1.14.63s-.76.76-1.27.76H26.08c-.51,0-1.08-.13-1.08-.76s.83-.76,1.33-.76c5.08-.19,8.57-10.47,10-14.28l2.73-7.43C37.76,30.11,36,30.75,36,30c0-.32.57-.44.76-.51,3.74-.76,5.78-4.57,6.54-4.57s1.46,2.54,1.65,2.92l6.86,17.26,5.08-13.33C55,30.37,54,30.94,54,30.24c0-.32.44-.38.7-.44,4.19-1.33,5.2-4.89,6.09-4.89.51,0,.76.76.89,1.27l5.08,12.5c6.22,15.49,6.86,14.79,10,15,.51,0,1.21.19,1.21.89,0,.51-.83.51-1.21.51H62.26c-.51,0-1.4,0-1.4-.7s.38-.7.89-.7c1.33-.13,3.11-.44,3.11-2.09a14.24,14.24,0,0,0-1.33-4.32L57.69,32.84,52.55,47.06c1.21,2.35,2.22,6.22,5.4,6.6.44,0,.89.19.89.7,0,1-1.84.7-2.29.7H44.17c-.57,0-2.35.19-2.35-.76,0-.7,1-.76,1.59-.76C45,53.47,47,53.35,47,51.25c0-1.46-1-3.68-1.59-5.08Z"/></svg>