<?xml version="1.0" standalone="no"?>
<!DOCTYPE svg PUBLIC "-//W3C//DTD SVG 20010904//EN"
 "http://www.w3.org/TR/2001/REC-SVG-20010904/DTD/svg10.dtd">
<svg version="1.0" xmlns="http://www.w3.org/2000/svg"
 width="140.000000pt" height="140.000000pt" viewBox="0 0 140.000000 140.000000"
 preserveAspectRatio="xMidYMid meet">
<metadata>
Created by potrace 1.11, written by Peter Selinger 2001-2013
</metadata>
<g transform="translate(0.000000,140.000000) scale(0.100000,-0.100000)"
fill="#000000" stroke="none">
<path d="M0 695 l0 -695 373 0 372 0 -42 36 c-52 43 -131 141 -171 214 -56 99
-87 198 -117 364 l-6 39 38 -30 c44 -35 116 -73 137 -73 10 0 20 -24 32 -76
10 -42 24 -78 31 -81 14 -5 473 104 485 115 4 4 -2 45 -13 90 -12 46 -19 86
-16 89 9 9 81 23 119 23 l36 0 7 -62 c12 -117 12 -118 53 -118 52 0 82 10 82
27 0 11 -9 13 -45 7 -25 -3 -45 -5 -46 -3 -15 107 -45 376 -43 380 2 4 33 10
69 14 48 5 65 11 65 22 0 12 -11 13 -67 8 -109 -11 -106 -8 -99 -73 4 -32 9
-73 12 -92 l5 -36 -87 -12 c-47 -7 -87 -12 -89 -10 -1 2 -11 39 -22 83 -15 64
-23 80 -38 82 -11 2 -121 -23 -245 -55 l-225 -58 2 -42 c2 -51 -6 -53 -90 -15
l-60 27 6 115 c9 185 61 334 153 439 l46 52 -301 0 -301 0 0 -695z m1019 168
c44 -169 81 -326 77 -330 -6 -7 -429 -114 -432 -110 -7 7 -94 360 -90 364 4 5
403 110 423 112 7 1 17 -16 22 -36z m-668 -134 c15 -21 26 -61 35 -122 8 -50
15 -98 16 -106 2 -11 -6 -17 -24 -19 -16 -2 -28 -8 -28 -14 0 -6 13 -8 29 -6
28 4 31 1 45 -41 11 -35 12 -47 3 -53 -17 -11 -22 -10 -51 13 -50 39 -116 210
-116 299 0 78 51 105 91 49z"/>
<path d="M309 668 c-1 -2 -3 -16 -4 -33 -2 -33 49 -145 66 -145 5 0 2 14 -8
30 -14 25 -15 34 -5 50 15 24 0 70 -23 70 -8 0 -15 5 -15 10 0 6 11 8 26 4 19
-5 25 -4 20 5 -6 9 -53 16 -57 9z m41 -58 c0 -5 -4 -10 -10 -10 -5 0 -10 5
-10 10 0 6 5 10 10 10 6 0 10 -4 10 -10z"/>
<path d="M1077 351 c-152 -31 -283 -63 -289 -69 -19 -19 36 -114 100 -173 70
-64 148 -89 275 -89 93 0 202 14 227 30 30 19 -1 20 -81 4 -101 -20 -254 -15
-314 11 -46 20 -95 53 -95 64 0 4 33 15 73 24 80 20 190 58 183 64 -2 2 -59
-6 -126 -17 -160 -27 -178 -25 -203 23 -11 21 -17 40 -14 43 5 5 561 124 580
124 4 0 7 5 7 10 0 16 -29 12 -323 -49z"/>
<path d="M747 356 c-24 -19 -43 -74 -28 -89 8 -8 15 -1 26 26 8 20 24 41 35
47 11 6 18 15 15 21 -8 13 -27 11 -48 -5z"/>
</g>
</svg>
