<?xml version="1.0" encoding="utf-8"?>
<!-- Generator: Adobe Illustrator 21.1.0, SVG Export Plug-In . SVG Version: 6.00 Build 0)  -->
<svg version="1.1" id="Layer_1" xmlns="http://www.w3.org/2000/svg" xmlns:xlink="http://www.w3.org/1999/xlink" x="0px" y="0px"
	 viewBox="0 0 2500 454" style="enable-background:new 0 0 2500 454;" xml:space="preserve">
<style type="text/css">
	.st0{fill:#666666;}
</style>
<g>
	<path class="st0" d="M156.9,111.8c28,0,53.7,10.1,73.7,26.9l27.1-32.3c-27.3-22.9-62.4-36.8-100.8-36.8C70.4,69.6,0,139.9,0,226.4
		c0,86.5,70.4,156.9,156.9,156.9c38.3,0,73.5-13.8,100.8-36.8l-27.1-32.3c-20.6,17.4-46.7,26.9-73.6,26.9
		c-63.2,0-114.6-51.4-114.6-114.6C42.2,163.2,93.7,111.8,156.9,111.8L156.9,111.8z M1025.2,78.6h-84.5c-11.7,0-21.1,9.5-21.1,21.1
		v253.4c0,11.7,9.5,21.1,21.1,21.1h84.5c81.5,0,147.8-66.3,147.8-147.8C1173,144.9,1106.7,78.6,1025.2,78.6L1025.2,78.6L1025.2,78.6
		z M1025.2,332h-63.3V120.8h63.4c58.2,0,105.6,47.4,105.6,105.6C1130.8,284.7,1083.4,332,1025.2,332L1025.2,332L1025.2,332z
		 M1287.4,99.7v253.4c0,11.7,9.5,21.1,21.1,21.1h176V332h-154.8v-84.5h98.5v-42.2h-98.5v-84.5h154.8V78.6h-176
		C1296.8,78.6,1287.4,88,1287.4,99.7C1287.4,99.7,1287.4,99.7,1287.4,99.7L1287.4,99.7L1287.4,99.7z M1926.6,99.7v253.4
		c0,11.7,9.5,21.1,21.1,21.1h176V332h-154.8v-84.5h98.5v-42.2h-98.5v-84.5h154.8V78.6h-176C1936,78.6,1926.6,88,1926.6,99.7
		C1926.6,99.7,1926.6,99.7,1926.6,99.7L1926.6,99.7L1926.6,99.7z M1725.6,78.6h-91.5c-11.7,0-21.1,9.5-21.1,21.1v274.5h42.2V247.5
		h70.4c46.6,0,84.5-37.9,84.5-84.5C1810.1,116.5,1772.2,78.6,1725.6,78.6C1725.6,78.6,1725.6,78.6,1725.6,78.6z M1725.6,205.3h-70.4
		v-84.5h70.4c23.3,0,42.2,18.9,42.2,42.2S1748.9,205.3,1725.6,205.3L1725.6,205.3z M2453.8,78.6v216.2L2280,86.2
		c-5.7-6.8-15-9.4-23.4-6.3c-8.4,3-13.9,11-13.9,19.9v274.5h42.2V158.1l173.8,208.6c5.7,6.8,15,9.4,23.4,6.3
		c8.4-3,13.9-11,13.9-19.9V78.6L2453.8,78.6L2453.8,78.6z M799.7,154.4c-0.1-0.5-0.2-1.1-0.3-1.6c-0.1-0.3-0.2-0.6-0.3-0.9
		c-0.1-0.5-0.3-0.9-0.5-1.4c-0.1-0.3-0.3-0.6-0.4-0.9c-0.2-0.4-0.4-0.9-0.7-1.3c-0.2-0.3-0.4-0.6-0.6-0.9c-0.7-1.1-1.5-2.1-2.4-3.1
		c-0.3-0.3-0.5-0.5-0.8-0.8c-0.4-0.3-0.7-0.6-1.1-0.9c-0.3-0.2-0.6-0.5-0.9-0.7c-0.1-0.1-0.2-0.2-0.3-0.2L585.5,4.4
		c-6.5-4.3-15-4.3-21.5,0L358.1,141.7c-0.1,0.1-0.2,0.2-0.3,0.2c-0.3,0.2-0.6,0.4-0.9,0.7c-0.7,0.5-1.3,1.1-1.9,1.7
		c-0.9,0.9-1.7,2-2.4,3.1c-0.2,0.3-0.4,0.6-0.6,0.9c-0.2,0.4-0.5,0.8-0.7,1.3c-0.1,0.3-0.3,0.6-0.4,0.9c-0.2,0.5-0.4,0.9-0.5,1.4
		c-0.1,0.3-0.2,0.6-0.3,0.9c-0.1,0.5-0.2,1.1-0.3,1.6c-0.1,0.3-0.1,0.6-0.2,0.8c-0.1,0.8-0.2,1.7-0.2,2.5v137.3
		c0,0.8,0.1,1.7,0.2,2.5c0,0.3,0.1,0.5,0.2,0.8c0.1,0.5,0.2,1.1,0.4,1.6c0.1,0.3,0.2,0.6,0.3,0.9c0.2,0.5,0.3,1,0.5,1.4
		c0.1,0.3,0.3,0.6,0.4,0.9c0.5,1.2,1.2,2.3,2.1,3.3c0.2,0.3,0.4,0.5,0.7,0.8c0.3,0.4,0.6,0.7,1,1c0.2,0.2,0.5,0.5,0.8,0.7
		c0.4,0.3,0.7,0.6,1.1,0.9c0.3,0.2,0.6,0.4,0.8,0.7c0.1,0.1,0.2,0.2,0.3,0.2L564,448.4c3.3,2.2,7,3.3,10.7,3.3
		c3.8,0,7.6-1.1,10.7-3.3l205.9-137.3c0.1-0.1,0.2-0.2,0.3-0.2c0.3-0.2,0.6-0.4,0.9-0.7c0.4-0.3,0.8-0.6,1.1-0.9
		c0.3-0.2,0.5-0.5,0.8-0.8c0.6-0.6,1.1-1.2,1.6-1.9c0.5-0.7,0.9-1.4,1.4-2.1c0.2-0.4,0.5-0.9,0.7-1.3c0.1-0.3,0.3-0.6,0.4-0.9
		c0.2-0.5,0.3-0.9,0.5-1.4c0.1-0.3,0.2-0.6,0.3-0.9c0.1-0.5,0.2-1.1,0.3-1.6c0-0.3,0.1-0.6,0.1-0.8c0.1-0.8,0.2-1.7,0.2-2.5V157.8
		c0-0.8-0.1-1.7-0.2-2.5C799.8,155,799.7,154.7,799.7,154.4L799.7,154.4L799.7,154.4z M574.8,272.2l-68.5-45.8l68.5-45.8l68.5,45.8
		L574.8,272.2z M555.4,147l-83.9,56.1l-67.7-45.3L555.4,56.7L555.4,147L555.4,147z M436.7,226.4l-48.4,32.4V194L436.7,226.4
		L436.7,226.4z M471.5,249.7l83.9,56.1v90.3L403.7,295L471.5,249.7L471.5,249.7L471.5,249.7z M594.1,305.8l83.9-56.1l67.7,45.3
		L594.1,396.1V305.8z M712.9,226.4l48.4-32.4v64.8L712.9,226.4L712.9,226.4L712.9,226.4z M678,203.1L594.1,147V56.7l151.7,101.1
		L678,203.1L678,203.1z"/>
</g>
</svg>
