<?xml version="1.0" standalone="no"?>
<!DOCTYPE svg PUBLIC "-//W3C//DTD SVG 20010904//EN"
 "http://www.w3.org/TR/2001/REC-SVG-20010904/DTD/svg10.dtd">
<svg version="1.0" xmlns="http://www.w3.org/2000/svg"
 width="700.000000pt" height="700.000000pt" viewBox="0 0 700.000000 700.000000"
 preserveAspectRatio="xMidYMid meet">
<metadata>
Created by potrace 1.11, written by Peter Selinger 2001-2013
</metadata>
<g transform="translate(0.000000,700.000000) scale(0.100000,-0.100000)"
fill="#000000" stroke="none">
<path d="M2460 5440 c-8 -5 -84 -78 -170 -163 -245 -243 -348 -310 -595 -387
-141 -43 -141 -89 0 -125 39 -10 94 -29 123 -43 66 -32 142 -97 142 -122 0
-15 -98 -291 -145 -410 -8 -19 -64 -172 -126 -340 -61 -168 -123 -334 -136
-370 -14 -36 -33 -88 -43 -115 -10 -28 -45 -113 -78 -190 -33 -77 -68 -160
-78 -185 -39 -93 -175 -359 -226 -443 -64 -105 -169 -255 -212 -301 -103 -113
-142 -150 -211 -198 -95 -68 -188 -101 -309 -112 -114 -11 -162 -44 -152 -107
6 -38 20 -55 58 -68 20 -7 292 -11 842 -10 888 0 864 -1 899 58 28 48 -2 96
-66 106 -12 2 -69 6 -126 9 -271 16 -396 99 -436 293 -31 149 28 502 140 830
45 134 156 443 180 503 16 39 125 339 129 355 2 6 6 17 9 25 3 8 48 130 98
270 50 140 95 259 99 263 4 4 12 -5 18 -20 17 -42 272 -664 287 -698 7 -16 22
-55 34 -85 12 -30 26 -64 31 -75 19 -41 353 -854 396 -965 158 -402 136 -575
-81 -648 -45 -16 -73 -20 -150 -27 -227 -18 -232 -19 -265 -43 -32 -25 -41
-60 -22 -94 17 -30 48 -46 102 -53 19 -2 452 -5 962 -5 833 -1 931 0 961 15
47 22 62 61 43 110 -8 21 -55 42 -109 49 -154 21 -293 125 -403 301 -49 77
-85 149 -150 290 -32 72 -68 150 -80 175 -15 31 -19 51 -13 65 10 24 283 778
344 950 24 66 61 170 83 230 22 61 73 200 112 310 84 234 86 238 96 210 18
-52 360 -894 388 -959 14 -31 23 -56 20 -56 -2 0 2 -12 10 -27 7 -16 75 -179
149 -364 75 -184 151 -371 170 -415 58 -132 96 -256 118 -379 15 -83 15 -79 6
-132 -12 -70 -80 -133 -181 -167 -51 -17 -67 -20 -190 -35 -101 -12 -113 -24
-107 -107 1 -23 38 -52 74 -60 12 -3 457 -5 988 -6 862 0 969 1 996 15 37 20
42 32 31 74 -16 62 -55 77 -223 89 -193 13 -277 59 -396 220 -185 251 -364
656 -1154 2609 -42 105 -83 204 -90 220 -17 37 -126 313 -149 377 -22 59 -58
98 -91 98 -25 0 -67 -37 -118 -103 -223 -290 -374 -409 -624 -491 -83 -28 -96
-38 -86 -75 4 -15 21 -26 62 -38 31 -9 63 -18 71 -19 29 -5 202 -97 207 -111
3 -7 -18 -75 -47 -151 -58 -151 -156 -407 -176 -462 -7 -19 -18 -48 -25 -65
-7 -16 -13 -34 -15 -40 -1 -5 -68 -181 -149 -390 -80 -209 -157 -411 -170
-449 -14 -38 -27 -71 -29 -73 -5 -5 -47 97 -285 697 -121 305 -284 715 -361
910 -78 195 -172 434 -209 530 -80 205 -109 265 -146 303 -29 28 -50 33 -75
17z"/>
</g>
</svg>
