<svg id="Layer_1" data-name="Layer 1" xmlns="http://www.w3.org/2000/svg" viewBox="0 0 100 56.94"><defs><style>.cls-1{fill:#fff;}</style></defs><title>maa-offcanvas-logo-icon</title><path class="cls-1" d="M28.14,15,20.6,35.69c-1.2,3.59-2.75,8.62-2.75,12.22,0,5.27,3.47,6.35,7.9,6.35.84,0,2.16.12,2.16,1.2s-1.44,1.44-2.4,1.44H2c-1,0-2-.24-2-1.44S1.56,54,2.51,54c9.58-.36,16.17-19.76,18.92-26.95l5.15-14c-2.51-3.23-5.87-2-5.87-3.47,0-.6,1.08-.84,1.44-1C29.22,7.19,33.05,0,34.49,0s2.75,4.79,3.11,5.51L50.54,38.08l9.58-25.15c-3.47-2.63-5.39-1.56-5.39-2.87,0-.6.84-.72,1.32-.84C64,6.71,65.87,0,67.55,0c1,0,1.44,1.44,1.68,2.4L78.8,26c11.74,29.22,12.93,27.9,18.92,28.26,1,0,2.28.36,2.28,1.68,0,1-1.56,1-2.28,1H70.3c-1,0-2.63,0-2.63-1.32,0-1.08.72-1.32,1.68-1.32,2.52-.24,5.87-.84,5.87-4,0-2.52-1.68-6-2.51-8.14L61.68,15,52,41.8c2.28,4.43,4.19,11.74,10.18,12.46.84,0,1.68.36,1.68,1.32,0,1.8-3.47,1.32-4.31,1.32H36.17c-1.08,0-4.43.36-4.43-1.44,0-1.32,1.92-1.44,3-1.44,3-.12,6.83-.36,6.83-4.31,0-2.75-1.92-6.95-3-9.58Z"/></svg>