<?xml version="1.0" encoding="UTF-8" standalone="no"?>
<!DOCTYPE svg PUBLIC "-//W3C//DTD SVG 1.1//EN" "http://www.w3.org/Graphics/SVG/1.1/DTD/svg11.dtd">
<svg width="100%" height="100%" viewBox="0 0 224 80" version="1.1" xmlns="http://www.w3.org/2000/svg" xmlns:xlink="http://www.w3.org/1999/xlink" xml:space="preserve" style="fill-rule:evenodd;clip-rule:evenodd;stroke-linejoin:round;stroke-miterlimit:1.41421;">
    <path id="cSymbol" d="M51.66,74.69C52.312,74.688 52.939,74.939 53.41,75.39C53.862,75.848 54.115,76.467 54.115,77.11C54.115,78.454 53.009,79.56 51.665,79.56C51.664,79.56 51.662,79.56 51.66,79.56C51.009,79.583 50.38,79.319 49.94,78.84C49.462,78.394 49.191,77.769 49.191,77.115C49.191,76.461 49.462,75.836 49.94,75.39C50.397,74.936 51.016,74.684 51.66,74.69ZM50.3,75.78C49.95,76.134 49.753,76.612 49.753,77.11C49.753,78.147 50.606,79 51.643,79C51.649,79 51.654,79 51.66,79C52.165,79.017 52.653,78.817 53,78.45C53.356,78.097 53.556,77.616 53.556,77.115C53.556,76.614 53.356,76.133 53,75.78C52.657,75.412 52.173,75.208 51.67,75.22C51.159,75.212 50.667,75.415 50.31,75.78L50.3,75.78ZM51.24,76.06L51.24,77L51.46,77C51.88,77 52.07,76.8 52.07,76.5C52.07,76.2 51.88,76.08 51.51,76.08L51.24,76.06ZM51.52,75.64C52.24,75.64 52.63,75.92 52.63,76.42C52.623,76.782 52.403,77.108 52.07,77.25L52.76,78.56L52.09,78.56L51.51,77.34L51.23,77.34L51.23,78.56L50.7,78.56L50.7,75.64L51.52,75.64Z" style="fill:white;fill-rule:nonzero;"/>
    <rect x="42.06" y="56.83" width="1.62" height="1.94" style="fill:white;fill-rule:nonzero;"/>
    <path d="M54.75,72.69L0,72.69L0,0.92L54.75,0.92L54.75,72.69ZM3.93,59.92L3.93,65.49L6.93,65.49C7.23,67.07 6.21,67.85 3.93,67.85L3.93,70.25C7.43,69.79 9.42,68.25 9.76,65.5L9.76,59.92L3.93,59.92ZM35.23,63.51L33.49,63.51L33.49,59.92L31.68,59.92L31.68,65.42L40.49,65.42L40.49,59.92L38.57,59.92L38.57,63.51L36.94,63.51L36.94,59.92L35.23,59.92L35.23,63.51ZM43.68,65.42L43.68,59.92L42.06,59.92L42.06,65.42L43.68,65.42ZM47.36,65.42L47.36,56.83L45.36,56.83L45.36,65.42L47.36,65.42ZM51.15,65.42L51.15,56.83L48.92,56.83L48.92,65.42L51.15,65.42ZM16.84,59.92L11,59.92L11,65.42L16.84,65.42L16.84,59.92ZM23.79,59.92L17.79,59.92L17.79,65.42L23.79,65.42L23.79,59.92ZM28.45,56.95L28.45,59.95L24.87,59.95L24.87,65.37L30.53,65.37L30.53,56.95L28.45,56.95ZM7.73,63.55L5.91,63.55C5.569,63.261 5.372,62.837 5.372,62.39C5.372,61.943 5.569,61.519 5.91,61.23L7.73,61.23C8.361,61.869 8.361,62.911 7.73,63.55ZM28.64,63.51L27,63.51C26.692,63.209 26.518,62.796 26.518,62.365C26.518,61.934 26.692,61.521 27,61.22L28.62,61.22C28.934,61.522 29.113,61.939 29.113,62.375C29.113,62.801 28.942,63.21 28.64,63.51ZM21.55,63.51L20.11,63.51C19.802,63.209 19.628,62.796 19.628,62.365C19.628,61.934 19.802,61.521 20.11,61.22L21.55,61.22C21.858,61.521 22.032,61.934 22.032,62.365C22.032,62.796 21.858,63.209 21.55,63.51ZM15,63.51L13.23,63.51C12.922,63.209 12.748,62.796 12.748,62.365C12.748,61.934 12.922,61.521 13.23,61.22L15,61.22C15.308,61.521 15.482,61.934 15.482,62.365C15.482,62.796 15.308,63.209 15,63.51ZM51.43,4.32L3.09,4.32L3.09,54.2L51.43,54.2L51.43,4.32Z" style="fill:white;"/>
    <path d="M12.37,28C9.98,31.19 9.05,31.6 3.12,31.6C1.82,31.6 1.57,32.02 1.45,33.32C1.33,34.62 1.5,34.83 2.8,34.88C11,35.21 12,33.11 14.73,30L12.36,28L12.37,28Z" style="fill:white;fill-rule:nonzero;"/>
    <path d="M25.46,4.51L25.46,30C25.46,39.26 16.13,44.16 8.38,44.16L2.87,44.16C1.59,44.16 1.64,44.73 1.64,46C1.64,46 1.76,46.47 1.76,46.49C1.76,47.79 2.06,47.49 3.36,47.49L7.66,47.49C21.98,47.22 28.9,38.78 28.9,30.49L28.9,4.39C28.9,3.09 28.48,3.28 27.18,3.28C25.88,3.28 25.46,3.21 25.46,4.51Z" style="fill:white;fill-rule:nonzero;"/>
    <path d="M19.23,16.18C19.23,18.758 17.108,20.88 14.53,20.88C11.952,20.88 9.83,18.758 9.83,16.18C9.83,13.602 11.952,11.48 14.53,11.48C17.108,11.48 19.23,13.602 19.23,16.18Z" style="fill:white;fill-rule:nonzero;"/>
    <g id="Text">
        <rect x="72.36" y="1.12" width="1.29" height="71.78" style="fill:white;"/>
        <path d="M105.52,19.63C103.709,20.346 101.777,20.709 99.83,20.7C97.306,20.8 94.845,19.885 93,18.16C91.177,16.166 90.213,13.53 90.32,10.83C90.32,5.43 93.87,0.83 100.48,0.83C102.031,0.803 103.57,1.099 105,1.7L104.54,2.86C103.231,2.246 101.795,1.952 100.35,2C95,2 91.72,5.49 91.72,10.77C91.72,16.26 94.92,19.52 100.06,19.52C101.449,19.606 102.84,19.381 104.13,18.86L104.13,12L99.63,12L99.63,10.85L105.52,10.85L105.52,19.63Z" style="fill:white;fill-rule:nonzero;"/>
        <path d="M121.54,13.42C121.54,18.59 117.99,20.81 114.9,20.81C111.32,20.81 108.55,18.01 108.55,13.68C108.55,8.95 111.67,6.32 115.1,6.32C118.94,6.32 121.54,9.21 121.54,13.42ZM109.93,13.59C109.93,17.05 112.15,19.65 114.98,19.65C117.81,19.65 120.15,17.05 120.15,13.5C120.15,10.96 118.74,7.5 115.07,7.5C111.4,7.5 109.94,10.62 109.94,13.6L109.93,13.59Z" style="fill:white;fill-rule:nonzero;"/>
        <path d="M136.9,13.42C136.9,18.59 133.35,20.81 130.26,20.81C126.68,20.81 123.91,18.01 123.91,13.68C123.91,8.95 127.03,6.32 130.46,6.32C134.3,6.32 136.9,9.21 136.9,13.42ZM125.29,13.59C125.29,17.05 127.51,19.65 130.34,19.65C133.17,19.65 135.51,17.05 135.51,13.5C135.51,10.96 134.1,7.5 130.43,7.5C126.76,7.5 125.29,10.62 125.29,13.6L125.29,13.59Z" style="fill:white;fill-rule:nonzero;"/>
        <path d="M151.48,0L151.48,17.26C151.48,18.26 151.48,19.51 151.6,20.49L150.36,20.49L150.24,17.86L150.18,17.86C149.266,19.731 147.321,20.889 145.24,20.8C141.8,20.8 139.24,17.94 139.24,13.8C139.24,9.18 142.07,6.29 145.48,6.29C147.335,6.193 149.091,7.16 150,8.78L150.06,8.78L150.06,0L151.48,0ZM150.09,12.13C150.1,11.702 150.053,11.275 149.95,10.86C149.46,8.865 147.645,7.458 145.59,7.48C142.59,7.48 140.65,10.11 140.65,13.69C140.65,16.81 142.21,19.69 145.5,19.69C147.636,19.67 149.49,18.166 149.95,16.08C150.057,15.703 150.104,15.312 150.09,14.92L150.09,12.13Z" style="fill:white;fill-rule:nonzero;"/>
        <path d="M155.86,6.64L158.2,14.52C158.66,16.14 159.07,17.52 159.38,18.85L159.44,18.85C159.79,17.58 160.28,16.11 160.83,14.52L163.6,6.64L164.9,6.64L167.56,14.46C168.14,16.13 168.56,17.55 168.92,18.85L169,18.85C169.29,17.55 169.72,16.17 170.27,14.49L172.72,6.64L174.14,6.64L169.49,20.5L168.3,20.5L165.67,12.79C165.09,11.12 164.6,9.61 164.23,8.06L164.17,8.06C163.753,9.672 163.253,11.261 162.67,12.82L159.93,20.5L158.72,20.5L154.45,6.64L155.86,6.64Z" style="fill:white;fill-rule:nonzero;"/>
        <path d="M178.75,2.68C178.751,2.697 178.751,2.713 178.751,2.73C178.751,3.35 178.241,3.86 177.621,3.86C177.614,3.86 177.607,3.86 177.6,3.86C177.006,3.84 176.528,3.345 176.528,2.751C176.528,2.727 176.529,2.704 176.53,2.68C176.513,2.04 177.02,1.497 177.66,1.47C178.267,1.495 178.752,2.002 178.752,2.609C178.752,2.633 178.751,2.656 178.75,2.68L178.75,2.68ZM177,20.5L177,6.64L178.39,6.64L178.39,20.5L177,20.5Z" style="fill:white;fill-rule:nonzero;"/>
        <path d="M183,0L184.39,0L184.39,20.5L183,20.5L183,0Z" style="fill:white;fill-rule:nonzero;"/>
        <path d="M189.11,0L190.5,0L190.5,20.5L189.11,20.5L189.11,0Z" style="fill:white;fill-rule:nonzero;"/>
        <path d="M92.07,27.06L92.07,46.52L90.68,46.52L90.68,27.06L92.07,27.06Z" style="fill:white;fill-rule:nonzero;"/>
        <path d="M96.05,36C96.05,34.73 96.05,33.78 95.93,32.68L97.23,32.68L97.32,35.19L97.38,35.19C98.295,33.418 100.146,32.317 102.14,32.36C103.47,32.36 106.99,33.02 106.99,38.22L106.99,46.53L105.6,46.53L105.6,38.33C105.6,35.82 104.6,33.54 101.76,33.54C99.838,33.584 98.152,34.869 97.6,36.71C97.495,37.115 97.438,37.531 97.43,37.95L97.43,46.52L96.05,46.52L96.05,36Z" style="fill:white;fill-rule:nonzero;"/>
        <path d="M122,26L122,43.29C122,44.29 122,45.54 122.12,46.52L120.88,46.52L120.76,43.89L120.7,43.89C119.786,45.761 117.841,46.919 115.76,46.83C112.33,46.83 109.76,43.97 109.76,39.83C109.76,35.21 112.59,32.32 116,32.32C117.85,32.211 119.609,33.162 120.53,34.77L120.59,34.77L120.59,26L122,26ZM120.61,38.13C120.62,37.702 120.573,37.275 120.47,36.86C119.98,34.865 118.165,33.458 116.11,33.48C113.11,33.48 111.17,36.11 111.17,39.69C111.17,42.81 112.73,45.69 116.02,45.69C118.156,45.67 120.01,44.166 120.47,42.08C120.576,41.706 120.624,41.318 120.61,40.93L120.61,38.13Z" style="fill:white;fill-rule:nonzero;"/>
        <path d="M136.75,43.14C136.75,44.35 136.75,45.45 136.87,46.52L135.57,46.52L135.48,44L135.42,44C134.485,45.735 132.661,46.814 130.69,46.8C128.93,46.8 125.95,45.9 125.95,40.68L125.95,32.66L127.34,32.66L127.34,40.45C127.34,43.45 128.26,45.62 131.01,45.62C132.805,45.573 134.413,44.474 135.11,42.82C135.276,42.327 135.363,41.81 135.37,41.29L135.37,32.66L136.76,32.66L136.75,43.14Z" style="fill:white;fill-rule:nonzero;"/>
        <path d="M140.82,44.7C141.75,45.31 142.829,45.656 143.94,45.7C146.13,45.7 147.17,44.52 147.17,43.07C147.17,41.62 146.25,40.73 144.25,39.92C141.97,39.05 140.73,37.81 140.73,36.14C140.73,34.14 142.32,32.39 145,32.39C146.084,32.368 147.15,32.671 148.06,33.26L147.54,34.39C146.729,33.824 145.759,33.53 144.77,33.55C144.684,33.541 144.597,33.536 144.51,33.536C143.185,33.536 142.093,34.625 142.09,35.95C142.09,37.39 143.09,38.03 144.95,38.81C147.2,39.68 148.53,40.81 148.53,42.91C148.53,45.28 146.68,46.91 143.85,46.91C142.608,46.904 141.39,46.558 140.33,45.91L140.82,44.7Z" style="fill:white;fill-rule:nonzero;"/>
        <path d="M154.65,29.6L154.65,32.66L158.65,32.66L158.65,33.79L154.65,33.79L154.65,42.79C154.65,44.55 155.2,45.65 156.65,45.65C157.187,45.666 157.724,45.599 158.24,45.45L158.41,46.45C157.797,46.698 157.141,46.817 156.48,46.8C155.577,46.859 154.698,46.488 154.11,45.8C153.442,44.829 153.134,43.654 153.24,42.48L153.24,33.79L150.9,33.79L150.9,32.66L153.24,32.66L153.24,30.12L154.65,29.6Z" style="fill:white;fill-rule:nonzero;"/>
        <path d="M161.63,36.82C161.63,35.43 161.63,34.02 161.51,32.66L162.78,32.66L162.84,35.46L162.93,35.46C163.436,33.69 165.022,32.431 166.86,32.34C167.055,32.344 167.249,32.364 167.44,32.4L167.44,33.73C167.224,33.679 167.002,33.659 166.78,33.67C164.87,33.67 163.52,35.32 163.14,37.54C163.055,37.978 163.015,38.424 163.02,38.87L163.02,46.52L161.63,46.52L161.63,36.82Z" style="fill:white;fill-rule:nonzero;"/>
        <path d="M172.17,28.71C172.171,28.727 172.171,28.744 172.171,28.761C172.171,29.381 171.661,29.891 171.041,29.891C171.027,29.891 171.014,29.89 171,29.89C170.406,29.87 169.928,29.375 169.928,28.781C169.928,28.757 169.929,28.734 169.93,28.71C169.918,28.072 170.422,27.532 171.06,27.5C171.675,27.515 172.172,28.025 172.172,28.64C172.172,28.663 172.171,28.687 172.17,28.71ZM170.38,46.52L170.38,32.66L171.77,32.66L171.77,46.52L170.38,46.52Z" style="fill:white;fill-rule:nonzero;"/>
        <path d="M176.61,39.45C176.61,43.87 179.01,45.63 181.89,45.63C183.215,45.69 184.534,45.422 185.73,44.85L186.08,45.92C184.722,46.571 183.224,46.877 181.72,46.81C177.72,46.81 175.25,43.92 175.25,39.81C175.25,35.19 177.91,32.3 181.49,32.3C186.02,32.3 186.89,36.57 186.89,38.56C186.903,38.841 186.883,39.123 186.83,39.4L176.61,39.45ZM185.44,38.35C185.44,36.42 184.66,33.5 181.31,33.5C178.25,33.5 176.92,36.21 176.66,38.35L185.44,38.35Z" style="fill:white;fill-rule:nonzero;"/>
        <path d="M190.41,44.7C191.34,45.31 192.419,45.656 193.53,45.7C195.72,45.7 196.76,44.52 196.76,43.07C196.76,41.62 195.84,40.73 193.84,39.92C191.56,39.05 190.32,37.81 190.32,36.14C190.32,34.14 191.91,32.39 194.59,32.39C195.674,32.367 196.74,32.671 197.65,33.26L197.13,34.39C196.319,33.824 195.349,33.53 194.36,33.55C194.274,33.541 194.187,33.536 194.1,33.536C192.775,33.536 191.683,34.625 191.68,35.95C191.68,37.39 192.68,38.03 194.54,38.81C196.79,39.68 198.12,40.81 198.12,42.91C198.12,45.28 196.27,46.91 193.44,46.91C192.197,46.905 190.98,46.559 189.92,45.91L190.41,44.7Z" style="fill:white;fill-rule:nonzero;"/>
        <path d="M102.52,65.47C102.52,70.64 98.97,72.86 95.88,72.86C92.3,72.86 89.53,70.06 89.53,65.73C89.53,61 92.65,58.37 96.08,58.37C99.92,58.36 102.52,61.25 102.52,65.47ZM90.91,65.64C90.91,69.1 93.13,71.7 95.96,71.7C98.79,71.7 101.13,69.1 101.13,65.55C101.13,63.01 99.72,59.55 96.05,59.55C92.38,59.55 90.91,62.67 90.91,65.64Z" style="fill:white;fill-rule:nonzero;"/>
        <path d="M106.7,72.54L106.7,59.81L104.7,59.81L104.7,58.68L106.7,58.68L106.7,57.93C106.7,55.79 107.1,54.06 108.23,52.93C109.063,52.14 110.172,51.706 111.32,51.72C112.04,51.709 112.752,51.866 113.4,52.18L113,53.25C112.452,52.985 111.848,52.858 111.24,52.88C108.64,52.88 108.12,55.25 108.12,57.88L108.12,58.66L111.82,58.66L111.82,59.79L108.12,59.79L108.12,72.54L106.7,72.54Z" style="fill:white;fill-rule:nonzero;"/>
        <path d="M119.92,53.37C121.571,53.082 123.244,52.939 124.92,52.94C128.47,52.94 131.16,53.94 132.77,55.6C134.45,57.437 135.323,59.874 135.19,62.36C135.303,65.045 134.395,67.676 132.65,69.72C130.95,71.6 128,72.72 124.25,72.72C122.805,72.737 121.36,72.68 119.92,72.55L119.92,53.37ZM121.31,71.37C122.356,71.486 123.408,71.532 124.46,71.51C130.7,71.51 133.79,68.02 133.79,62.39C133.85,57.45 131.1,54.08 124.79,54.08C123.609,54.069 122.43,54.176 121.27,54.4L121.31,71.37Z" style="fill:white;fill-rule:nonzero;"/>
        <path d="M146.65,69.25C146.629,70.35 146.696,71.45 146.85,72.54L145.58,72.54L145.38,70.54L145.32,70.54C144.319,72.006 142.645,72.875 140.87,72.85C140.77,72.858 140.669,72.862 140.569,72.862C138.506,72.862 136.809,71.165 136.809,69.102C136.809,69.068 136.809,69.034 136.81,69C136.81,65.8 139.61,63.86 145.27,63.92L145.27,63.55C145.27,62.19 145.01,59.45 141.72,59.48C140.482,59.448 139.263,59.797 138.23,60.48L137.8,59.48C139.019,58.712 140.43,58.303 141.87,58.3C145.87,58.3 146.66,61.3 146.66,63.76L146.65,69.25ZM145.26,65.12C142.26,65.03 138.26,65.5 138.26,68.82C138.253,68.897 138.25,68.974 138.25,69.052C138.25,70.506 139.446,71.702 140.9,71.702C140.933,71.702 140.967,71.701 141,71.7C142.824,71.785 144.498,70.653 145.1,68.93C145.198,68.661 145.245,68.376 145.24,68.09L145.26,65.12Z" style="fill:white;fill-rule:nonzero;"/>
        <path d="M150,52L151.39,52L151.39,72.5L150,72.5L150,52Z" style="fill:white;fill-rule:nonzero;"/>
        <path d="M155.51,52L156.9,52L156.9,72.5L155.51,72.5L155.51,52Z" style="fill:white;fill-rule:nonzero;"/>
        <path d="M169.69,69.25C169.669,70.35 169.736,71.45 169.89,72.54L168.62,72.54L168.42,70.54L168.36,70.54C167.359,72.006 165.685,72.875 163.91,72.85C163.806,72.859 163.703,72.863 163.599,72.863C161.536,72.863 159.839,71.166 159.839,69.103C159.839,69.069 159.839,69.034 159.84,69C159.84,65.8 162.64,63.86 168.3,63.92L168.3,63.55C168.3,62.19 168.04,59.45 164.75,59.48C163.512,59.448 162.293,59.797 161.26,60.48L160.83,59.48C162.049,58.712 163.46,58.303 164.9,58.3C168.9,58.3 169.69,61.3 169.69,63.76L169.69,69.25ZM168.3,65.12C165.3,65.03 161.3,65.5 161.3,68.82C161.293,68.901 161.289,68.982 161.289,69.063C161.289,70.517 162.485,71.713 163.939,71.713C163.983,71.713 164.026,71.712 164.07,71.71C165.894,71.795 167.568,70.663 168.17,68.94C168.268,68.671 168.315,68.386 168.31,68.1L168.3,65.12Z" style="fill:white;fill-rule:nonzero;"/>
        <path d="M173,70.72C173.93,71.33 175.009,71.676 176.12,71.72C178.31,71.72 179.35,70.54 179.35,69.09C179.35,67.64 178.43,66.75 176.43,65.94C174.15,65.07 172.91,63.83 172.91,62.16C172.91,60.16 174.5,58.41 177.18,58.41C178.264,58.387 179.33,58.691 180.24,59.28L179.72,60.41C178.909,59.844 177.939,59.55 176.95,59.57C176.864,59.561 176.777,59.556 176.69,59.556C175.365,59.556 174.273,60.645 174.27,61.97C174.27,63.41 175.27,64.05 177.13,64.83C179.38,65.7 180.71,66.83 180.71,68.93C180.71,71.3 178.86,72.93 176.03,72.93C174.787,72.925 173.57,72.579 172.51,71.93L173,70.72Z" style="fill:white;fill-rule:nonzero;"/>
        <path d="M181,74.83C181.434,73.582 181.768,72.301 182,71L183.15,70.82C182.808,72.194 182.34,73.533 181.75,74.82L181,74.83Z" style="fill:white;fill-rule:nonzero;"/>
        <path d="M189.84,53.08L189.84,72.54L188.45,72.54L188.45,53.08L189.84,53.08Z" style="fill:white;fill-rule:nonzero;"/>
        <path d="M193.24,62C193.24,60.73 193.24,59.78 193.12,58.68L194.42,58.68L194.51,61.19L194.57,61.19C195.485,59.418 197.336,58.317 199.33,58.36C200.66,58.36 204.18,59.02 204.18,64.22L204.18,72.53L202.8,72.53L202.8,64.33C202.8,61.82 201.8,59.54 198.96,59.54C197.036,59.586 195.349,60.875 194.8,62.72C194.695,63.125 194.638,63.541 194.63,63.96L194.63,72.53L193.24,72.53L193.24,62Z" style="fill:white;fill-rule:nonzero;"/>
        <path d="M217.11,71.93C215.837,72.529 214.447,72.837 213.04,72.83C209.04,72.83 206.4,69.91 206.4,65.76C206.4,61.37 209.4,58.37 213.53,58.37C214.799,58.329 216.057,58.629 217.17,59.24L216.68,60.37C215.683,59.819 214.559,59.54 213.42,59.56C209.7,59.56 207.79,62.42 207.79,65.65C207.79,69.29 210.07,71.65 213.28,71.65C214.481,71.654 215.666,71.377 216.74,70.84L217.11,71.93Z" style="fill:white;fill-rule:nonzero;"/>
        <rect x="220.58" y="69.15" width="2.61" height="3.43" style="fill:white;"/>
    </g>
</svg>
