<svg id="goodlogo" xmlns="http://www.w3.org/2000/svg" xmlns:xlink="http://www.w3.org/1999/xlink" viewBox="0 0 405.84 79.56"><defs><style>.cls-1{fill:none;}.cls-2,.cls-4{fill:#fff;}.cls-3{clip-path:url(#clip-path);}.cls-4,.cls-5{fill-rule:evenodd;}</style><clipPath id="clip-path"><rect class="cls-1" width="47.5" height="79.56"/></clipPath></defs><title>goodlogo-mobile-horz</title><path class="cls-2" d="M73.25,47.85a14.28,14.28,0,0,1-5.31,1,8.83,8.83,0,0,1-6.42-2.37A9.59,9.59,0,0,1,59,39.63c0-5,3.32-9.33,9.49-9.33a10.42,10.42,0,0,1,4.23.81l-.43,1.08a8.55,8.55,0,0,0-3.88-.78c-5,0-8.06,3.24-8.06,8.17,0,5.12,3,8.17,7.79,8.17a8.72,8.72,0,0,0,3.8-.62V40.71H67.75V39.66h5.5Z"/><path class="cls-2" d="M88.22,42.06c0,4.83-3.32,6.9-6.2,6.9-3.34,0-5.93-2.62-5.93-6.66,0-4.42,2.91-6.88,6.12-6.88C85.79,35.42,88.22,38.12,88.22,42.06Zm-10.84.16c0,3.24,2.08,5.66,4.72,5.66s4.83-2.43,4.83-5.74c0-2.37-1.32-5.64-4.75-5.64S77.38,39.44,77.38,42.22Z"/><path class="cls-2" d="M102.56,42.06c0,4.83-3.32,6.9-6.2,6.9-3.34,0-5.93-2.62-5.93-6.66,0-4.42,2.91-6.88,6.12-6.88C100.14,35.42,102.56,38.12,102.56,42.06Zm-10.84.16c0,3.24,2.08,5.66,4.72,5.66s4.83-2.43,4.83-5.74c0-2.37-1.32-5.64-4.75-5.64S91.72,39.44,91.72,42.22Z"/><path class="cls-2" d="M116.18,29.52V45.64c0,1,0,2.1.11,3h-1.16L115,46.21H115A4.9,4.9,0,0,1,110.36,49c-3.21,0-5.58-2.67-5.58-6.53,0-4.31,2.64-7,5.83-7a4.57,4.57,0,0,1,4.23,2.29h.05v-8.2Zm-1.29,11.33a4.47,4.47,0,0,0-.14-1.19,4.15,4.15,0,0,0-4.07-3.15c-2.83,0-4.61,2.45-4.61,5.8,0,2.91,1.46,5.58,4.53,5.58a4.3,4.3,0,0,0,4.15-3.37,3.49,3.49,0,0,0,.14-1.08Z"/><path class="cls-2" d="M120.28,35.72l2.18,7.36c.43,1.51.81,2.8,1.11,4h.05c.32-1.19.78-2.56,1.29-4l2.59-7.36h1.21L131.2,43c.54,1.56.94,2.89,1.27,4.1h.05c.27-1.21.67-2.51,1.19-4.07L136,35.72h1.32L133,48.66H131.9l-2.45-7.2c-.54-1.56-1-3-1.35-4.42H128a44.6,44.6,0,0,1-1.4,4.45l-2.56,7.17h-1.13l-4-12.94Z"/><path class="cls-2" d="M141.66,32a1.05,1.05,0,0,1-1.08,1.11,1,1,0,0,1-1-1.11,1.11,1.11,0,0,1,1.05-1.13A1.07,1.07,0,0,1,141.66,32ZM140,48.66V35.72h1.29V48.66Z"/><path class="cls-2" d="M145.62,29.52h1.29V48.66h-1.29Z"/><path class="cls-2" d="M151.34,29.52h1.29V48.66h-1.29Z"/><path class="cls-2" d="M163.35,30.49V48.66h-1.29V30.49Z"/><path class="cls-2" d="M167.07,38.82c0-1.19,0-2.08-.11-3.1h1.21l.08,2.35h.05a4.89,4.89,0,0,1,4.45-2.64c1.24,0,4.53.62,4.53,5.47v7.77H176V41c0-2.35-.92-4.48-3.59-4.48a4.16,4.16,0,0,0-3.88,3,5,5,0,0,0-.16,1.16v8h-1.29Z"/><path class="cls-2" d="M191.31,29.52V45.64c0,1,0,2.1.11,3h-1.16l-.11-2.45h-.05A4.91,4.91,0,0,1,185.49,49c-3.21,0-5.58-2.67-5.58-6.53,0-4.31,2.64-7,5.83-7A4.57,4.57,0,0,1,190,37.71H190v-8.2ZM190,40.84a4.46,4.46,0,0,0-.14-1.19,4.15,4.15,0,0,0-4.07-3.16c-2.83,0-4.61,2.45-4.61,5.8,0,2.91,1.46,5.58,4.53,5.58a4.29,4.29,0,0,0,4.15-3.37,3.49,3.49,0,0,0,.14-1.08Z"/><path class="cls-2" d="M205.09,45.51c0,1.13,0,2.16.11,3.16H204l-.08-2.32h-.05A5,5,0,0,1,199.43,49c-1.65,0-4.42-.84-4.42-5.72V35.72h1.29V43c0,2.8.86,4.83,3.43,4.83a4.28,4.28,0,0,0,3.83-2.62,4.68,4.68,0,0,0,.24-1.43V35.72h1.29Z"/><path class="cls-2" d="M208.89,47a5.73,5.73,0,0,0,2.91.89c2,0,3-1.11,3-2.45s-.86-2.18-2.72-2.94c-2.13-.81-3.29-2-3.29-3.53,0-1.86,1.48-3.51,4-3.51a5.07,5.07,0,0,1,2.86.81l-.49,1.05a4.37,4.37,0,0,0-2.59-.78,2.26,2.26,0,0,0-2.51,2.24c0,1.35.92,1.94,2.67,2.67,2.1.81,3.34,1.86,3.34,3.83,0,2.21-1.73,3.69-4.37,3.69a6.36,6.36,0,0,1-3.29-.89Z"/><path class="cls-2" d="M221.81,32.86v2.86h3.69v1.05h-3.69v8.41c0,1.64.51,2.67,1.89,2.67a4.83,4.83,0,0,0,1.48-.19l.16,1a4.51,4.51,0,0,1-1.81.32,2.68,2.68,0,0,1-2.21-.92,4.72,4.72,0,0,1-.81-3.1V36.77h-2.18V35.72h2.18V33.35Z"/><path class="cls-2" d="M228.33,39.6c0-1.29,0-2.62-.11-3.88h1.19l.05,2.62h.08a4,4,0,0,1,3.67-2.91,3.27,3.27,0,0,1,.54.05v1.24a2.19,2.19,0,0,0-.62-.05c-1.78,0-3,1.54-3.4,3.61a6.12,6.12,0,0,0-.11,1.24v7.15h-1.29Z"/><path class="cls-2" d="M238.17,32a1.05,1.05,0,0,1-1.08,1.11,1,1,0,0,1-1-1.11,1.11,1.11,0,0,1,1.05-1.13A1.07,1.07,0,0,1,238.17,32ZM236.5,48.66V35.72h1.29V48.66Z"/><path class="cls-2" d="M242.33,42.06c0,4.13,2.24,5.77,4.94,5.77a7.52,7.52,0,0,0,3.59-.73l.32,1a8.54,8.54,0,0,1-4.07.84c-3.72,0-6-2.7-6-6.5,0-4.31,2.48-7,5.83-7,4.23,0,5,4,5,5.85a3.33,3.33,0,0,1-.05.78Zm8.25-1c0-1.81-.73-4.53-3.86-4.53-2.86,0-4.1,2.54-4.34,4.53Z"/><path class="cls-2" d="M255.21,47a5.73,5.73,0,0,0,2.91.89c2,0,3-1.11,3-2.45s-.86-2.18-2.72-2.94c-2.13-.81-3.29-2-3.29-3.53,0-1.86,1.48-3.51,4-3.51a5.07,5.07,0,0,1,2.86.81l-.49,1.05a4.37,4.37,0,0,0-2.59-.78,2.26,2.26,0,0,0-2.51,2.24c0,1.35.92,1.94,2.67,2.67,2.1.81,3.34,1.86,3.34,3.83,0,2.21-1.73,3.69-4.37,3.69a6.35,6.35,0,0,1-3.29-.89Z"/><path class="cls-2" d="M283.47,41.82c0,4.83-3.32,6.9-6.2,6.9-3.34,0-5.93-2.62-5.93-6.66,0-4.42,2.91-6.88,6.12-6.88C281,35.19,283.47,37.88,283.47,41.82ZM272.63,42c0,3.24,2.08,5.66,4.72,5.66s4.83-2.43,4.83-5.74c0-2.37-1.32-5.64-4.75-5.64S272.63,39.21,272.63,42Z"/><path class="cls-2" d="M287.38,48.43V36.53h-1.86V35.48h1.86v-.7c0-2,.38-3.61,1.43-4.67A4.12,4.12,0,0,1,291.7,29a4.3,4.3,0,0,1,1.94.43l-.41,1a3.48,3.48,0,0,0-1.64-.35c-2.43,0-2.91,2.21-2.91,4.69v.73h3.45v1.05h-3.45V48.43Z"/><path class="cls-2" d="M299.73,30.52a27.08,27.08,0,0,1,4.67-.41c3.32,0,5.82.89,7.34,2.48A8.67,8.67,0,0,1,314,38.91a9.94,9.94,0,0,1-2.37,6.88c-1.59,1.75-4.34,2.78-7.85,2.78a39.82,39.82,0,0,1-4-.16ZM301,47.35a22.42,22.42,0,0,0,2.94.14c5.82,0,8.71-3.26,8.71-8.52.05-4.61-2.51-7.77-8.36-7.77a16.52,16.52,0,0,0-3.29.3Z"/><path class="cls-2" d="M324.7,45.35a19.35,19.35,0,0,0,.19,3.07H323.7l-.19-1.86h-.05a5,5,0,0,1-4.15,2.16,3.52,3.52,0,0,1-3.8-3.56c0-3,2.62-4.8,7.9-4.75v-.35c0-1.27-.24-3.83-3.32-3.8a5.65,5.65,0,0,0-3.26,1l-.4-.94a7.16,7.16,0,0,1,3.8-1.11c3.75,0,4.48,2.81,4.48,5.1ZM323.4,41.5c-2.83-.08-6.55.35-6.55,3.45a2.48,2.48,0,0,0,2.59,2.7,3.87,3.87,0,0,0,3.83-2.59,2.18,2.18,0,0,0,.14-.78Z"/><path class="cls-2" d="M327.8,29.28h1.29V48.43H327.8Z"/><path class="cls-2" d="M333,29.28h1.29V48.43H333Z"/><path class="cls-2" d="M346.21,45.35a19.35,19.35,0,0,0,.19,3.07h-1.19L345,46.57H345a5,5,0,0,1-4.15,2.16,3.52,3.52,0,0,1-3.8-3.56c0-3,2.62-4.8,7.9-4.75v-.35c0-1.27-.24-3.83-3.32-3.8a5.65,5.65,0,0,0-3.26,1l-.4-.94a7.16,7.16,0,0,1,3.8-1.11c3.75,0,4.48,2.81,4.48,5.1Zm-1.29-3.86c-2.83-.08-6.55.35-6.55,3.45a2.48,2.48,0,0,0,2.59,2.7,3.87,3.87,0,0,0,3.83-2.59,2.18,2.18,0,0,0,.14-.78Z"/><path class="cls-2" d="M349.31,46.73a5.73,5.73,0,0,0,2.91.89c2,0,3-1.11,3-2.45s-.86-2.18-2.72-2.94c-2.13-.81-3.29-2-3.29-3.53,0-1.86,1.48-3.51,4-3.51a5.06,5.06,0,0,1,2.86.81L355.6,37a4.36,4.36,0,0,0-2.59-.78,2.26,2.26,0,0,0-2.51,2.24c0,1.35.92,1.94,2.67,2.67,2.1.81,3.34,1.86,3.34,3.83,0,2.21-1.73,3.69-4.37,3.69a6.35,6.35,0,0,1-3.29-.89Z"/><path class="cls-2" d="M356.79,50.57a23.31,23.31,0,0,0,.88-3.61l1.07-.17a21.33,21.33,0,0,1-1.31,3.69Z"/><path class="cls-2" d="M365,30.25V48.43h-1.29V30.25Z"/><path class="cls-2" d="M368.22,38.58c0-1.19,0-2.08-.11-3.1h1.21l.08,2.35h.05a4.89,4.89,0,0,1,4.45-2.64c1.24,0,4.53.62,4.53,5.47v7.77h-1.29V40.77c0-2.35-.92-4.48-3.59-4.48a4.16,4.16,0,0,0-3.88,3,5,5,0,0,0-.16,1.16v8h-1.29Z"/><path class="cls-2" d="M390.52,47.86a8.82,8.82,0,0,1-3.8.84c-3.72,0-6.2-2.72-6.2-6.61,0-4.1,2.81-6.9,6.66-6.9a6.63,6.63,0,0,1,3.4.81L390.11,37a6.08,6.08,0,0,0-3-.76c-3.48,0-5.26,2.67-5.26,5.69,0,3.4,2.13,5.61,5.12,5.61a7.18,7.18,0,0,0,3.24-.76Z"/><rect class="cls-2" x="393.76" y="45.26" width="2.44" height="3.2"/><g class="cls-3"><polygon class="cls-4" points="0 53.08 0 78.66 27.62 73.37 44.2 57.19 45.87 0 0 0 0 53.08 0 53.08"/><path class="cls-5" d="M17.07,43.68c-4.39,5.87-6.1,6.63-17,6.63-2.39,0-2.86.78-3.08,3.16s.09,2.78,2.48,2.86c15.14.53,17-3.34,22-9l-4.35-3.62Z"/><path class="cls-5" d="M41.17.36V47.29c0,17-17.18,26.07-31.43,26.07H-.41c-2.35.07-2.26,1.06-2.26,3.39,0,0,.22.86.23.91.07,2.39.54,1.88,2.94,1.81H8.4c26.35-.49,39.1-16,39.1-31.22V.13c0-2.39-.77-2-3.17-2S41.17-2,41.17.36Z"/><path class="cls-5" d="M29.71,21.84a8.65,8.65,0,1,1-8.65-8.65,8.65,8.65,0,0,1,8.65,8.65Z"/></g><path id="cSymbol" class="cls-4" d="M45.64,68.57A1.92,1.92,0,0,1,47,69.1a1.86,1.86,0,0,1-1.33,3.17,1.69,1.69,0,0,1-1.31-.55,1.79,1.79,0,0,1,0-2.62,1.83,1.83,0,0,1,1.31-.53Zm-1,.83a1.44,1.44,0,0,0,1,2.45,1.34,1.34,0,0,0,1-.42,1.43,1.43,0,0,0,0-2,1.34,1.34,0,0,0-1-.42,1.42,1.42,0,0,0-1,.42Zm.72.21v.7h.17c.32,0,.46-.15.46-.38s-.15-.32-.42-.32Zm.21-.32c.55,0,.84.21.84.59a.7.7,0,0,1-.42.63l.53,1H46l-.44-.93h-.21v.93h-.4V69.29Z"/></svg>