<svg id="skyline" xmlns="http://www.w3.org/2000/svg" viewBox="0 0 50 23.75"><title>skyline</title><path fill="#628cc9" d="M50,12.85a.1.1,0,0,0,0-.05c-.8-.29-1.6-.59-2.41-.87-1.37-.47-2.78-.83-4.19-1.16-.22-.05-.38-.12-.45-.34a2.46,2.46,0,0,1,0-.28s-.09,0-.11.05-.09.08-.14,0a2,2,0,0,0-.21-.24s-.06-.06-.05-.09-.07-.19-.2-.21l-.05.1-.31,0-.11-.4-.34-.25-.07-.22L41,9.17s-.08.05-.1.08-.26.28-.21.52-.07.19-.11.29h-.07c0-.38,0-.76,0-1.13h-.23v.24H39.9c0-.33,0-.65,0-1a.16.16,0,0,0-.08-.13,2.08,2.08,0,0,0-.32,0V7.69c-.1-.06-.22-.15-.3,0a.91.91,0,0,0-.07.32H39c0-.13,0-.25,0-.38s0-.16-.14-.16l-.39,0,0-.22h-.84a1,1,0,0,1,0,.2.63.63,0,0,1-.07.14.4.4,0,0,1-.06-.13c0-.52,0-1,0-1.57,0-.07,0-.13,0-.2l-.24,0V5.38H36.9l0,.27h-.39l0,.35-.27,0v.32l-.23,0v.49h-.24v-1H35.5l0,.24h-.42l0-.24h-.5l0,.23c-.13,0-.15,0-.15-.12,0-.4,0-.8,0-1.2a2.37,2.37,0,0,0-.05-.36h-.46a1.08,1.08,0,0,0-.26,0,2.7,2.7,0,0,1-.93,0,3.17,3.17,0,0,0-.05.4c0,.56,0,1.12,0,1.69a.54.54,0,0,1,0,.09h-.16l0,.24-.23,0c0-.09,0-.21-.08-.22S32,6.49,32,6.42c0-.51,0-1,0-1.52,0-.06,0-.12,0-.19H30.53c-.13,0-.16,0-.16.16,0,.48,0,1,0,1.45,0,.07,0,.13,0,.2l-.3,0v.38L29.73,7v.4h-.3l-.1-.35-.16,0V5.53a2.44,2.44,0,0,0-1.66,0V7L27.27,7l-.07.18h0a.4.4,0,0,0,0-.1A.59.59,0,0,0,27.09,7,.33.33,0,0,0,27,7a1.85,1.85,0,0,0,0,.21L26.73,7V3.71l-.24,0V3.39c-.14-.08-.21,0-.22.11h-.13c-.1,0-.19,0-.21-.11a.07.07,0,0,0,0,0,.39.39,0,0,1-.23-.4,2.42,2.42,0,0,0,0-.32.84.84,0,0,0-.08-.2h-.07a1.12,1.12,0,0,0-.06.21,3.07,3.07,0,0,1,0,.37.93.93,0,0,1-.14.31.81.81,0,0,1-.18.15l0,.07c-.1,0-.25,0-.28-.09s-.15-.08-.24-.07l0,.31-.23,0V6.14c-.23-.16-.44-.21-.64,0,0,0,0,.1,0,.16q0,.52,0,1c0,.09,0,.17-.14.09v-.4l-.23,0V5.18l-.24,0V4.92q0-2,0-4c0-.07-.06-.13-.06-.2S23,.56,22.91.49a1.54,1.54,0,0,1-.14-.21s-.08-.12-.13-.12c-.26,0-.53,0-.79,0a.15.15,0,0,0-.09.07c-.07.1-.11.24-.2.31a.42.42,0,0,0-.19.38q0,1.91,0,3.83v.18l0,0c-.09-.08-.19-.16-.28-.25a.18.18,0,0,0-.29,0l-.45.41a.17.17,0,0,0-.05.06,1.83,1.83,0,0,0-.17.83c0,.18,0,.32-.26.29l.06.06-.24.19a.77.77,0,0,0-.13-.16.23.23,0,0,0-.16,0c-.06,0-.11.06-.17.07a2.21,2.21,0,0,1-.3,0V7.79h-.08a.92.92,0,0,1,0-.16,6.09,6.09,0,0,0-.08-1.57.47.47,0,0,0-.07-.13c-.12-.16-.31-.27-.32-.5,0-.44,0-.88,0-1.32a.36.36,0,0,1,.11-.2c.11-.12.23-.21.17-.4,0,0,0-.11,0-.11s.06-.17,0-.24a.75.75,0,0,0-1.4-.09.69.69,0,0,0,.15.82.33.33,0,0,1,.12.28c0,.65,0,1.29,0,1.94,0,.06,0,.12,0,.19H17V8.23h-.07l0-.23-.16,0V7.5h-.29V7.27l-.2,0c0-.07,0-.12,0-.18A9.91,9.91,0,0,0,16,4.65c-.08-.37-.06-.37-.44-.37-.12,0-.17,0-.2.16a10.24,10.24,0,0,0-.22,2.61c0,.07,0,.13,0,.21a3.16,3.16,0,0,1-.32,0c-.16,0-.22,0-.21.2s0,.44,0,.66a.46.46,0,0,1,0,.12h0l0-.22H14.3v.2L14,8.36V8l-.38.1c0-.15,0-.29,0-.36s-.2-.06-.29-.08l-.14-.42h-.32V6.38h-1l0,.21-.16,0,0,.24c-.19.1-.45-.1-.6.16-.25,0-.25,0-.32.31h-.16c-.15,0-.2,0-.18.19a2.2,2.2,0,0,1,0,.24H10v.45H9.85l0-.15H9.6V7.74H9.12V8.9l-.23,0a2.48,2.48,0,0,1,0,.28.88.88,0,0,1-.06.18l-.16-.07v0s-.09,0-.12,0-.23-.06-.26.12a1.26,1.26,0,0,0,0,.19c-.06,0-.15.06-.16.1-.05.25-.12.07-.18,0s-.06.05-.08,0a.56.56,0,0,0-.35,0c-.17.06-.21.15-.27.3a.45.45,0,0,1-.14-.06c-.1-.1-.17,0-.24,0s-.05.09-.08.1a.33.33,0,0,0-.25.29.52.52,0,0,1-.47.39l-.21,0c-1.23.35-2.45.69-3.68,1.05-.46.13-.9.31-1.35.47L0,12.8v0h.1l-.11,0V23.68H50V12.86ZM17.73,4l.08.2h0a.3.3,0,0,1,0,.1.42.42,0,0,1-.07.09.38.38,0,0,1-.05-.09.2.2,0,0,1,0-.1C17.68,4.18,17.71,4.11,17.73,4Zm0,.42.1.21-.09.2-.06-.19a0,0,0,0,1,0,0Zm0,.43a.47.47,0,0,1,.05.15.47.47,0,0,1-.06.15L17.63,5Z"/></svg>
